<?xml version="1.0" encoding="UTF-8" standalone="no"?>
<svg width="54px" height="38px" viewBox="0 0 54 38" version="1.1" xmlns="http://www.w3.org/2000/svg" xmlns:xlink="http://www.w3.org/1999/xlink" xmlns:sketch="http://www.bohemiancoding.com/sketch/ns">
    <!-- Generator: Sketch Beta 3.3.2 (12041) - http://www.bohemiancoding.com/sketch -->
    <title>happy-coffee</title>
    <desc>Created with Sketch Beta.</desc>
    <defs></defs>
    <g id="Page-1" stroke="none" stroke-width="1" fill="none" fill-rule="evenodd" sketch:type="MSPage">
        <g id="happy-coffee" sketch:type="MSLayerGroup">
            <path d="M38.794,26.284 L38.794,22.784 C43.265,22.784 47.513,19.006 49.241,15.45 C50.13,13.621 50.289,11.983 49.654,11.176 C48.908,10.227 46.848,10.037 43.998,10.656 L43.256,7.236 C48.728,6.047 51.253,7.547 52.406,9.014 C53.919,10.94 53.913,13.843 52.389,16.98 C50.142,21.603 44.751,26.284 38.794,26.284" id="Fill-1" fill="#D5D8D2" sketch:type="MSShapeGroup"></path>
            <path d="M41.518,2.03 C41.518,2.933 33.303,3.666 23.169,3.666 C13.036,3.666 4.821,2.933 4.821,2.03 C4.821,1.126 13.036,0.393 23.169,0.393 C33.303,0.393 41.518,1.126 41.518,2.03" id="Fill-2" fill="#E8C274" sketch:type="MSShapeGroup"></path>
            <path d="M36.665,33.752 C41.085,27.75 45.075,13.628 45.462,3.657 C45.509,2.446 44.552,1.435 43.34,1.435 L2.672,1.435 C1.461,1.435 0.503,2.446 0.55,3.657 C0.938,13.628 4.928,27.75 9.348,33.752 C9.944,34.562 10.896,35.026 11.901,35.026 L34.112,35.026 C35.117,35.026 36.069,34.562 36.665,33.752" id="Fill-3" fill="#ECEDEC" sketch:type="MSShapeGroup"></path>
            <path d="M36.665,33.752 C41.085,27.75 45.075,13.628 45.462,3.657 C45.509,2.446 44.552,1.435 43.34,1.435 L2.672,1.435 C1.461,1.435 0.503,2.446 0.55,3.657 C0.938,13.628 4.928,27.75 9.348,33.752 C9.944,34.562 10.896,35.026 11.901,35.026 L34.112,35.026 C35.117,35.026 36.069,34.562 36.665,33.752" id="Fill-4" fill="#ECEDEC" sketch:type="MSShapeGroup"></path>
            <path d="M11.771,35.024 C11.779,35.024 11.787,35.024 11.795,35.025 C11.787,35.024 11.779,35.024 11.771,35.024 M9.63,34.084 C9.634,34.088 9.638,34.092 9.642,34.096 C9.638,34.092 9.634,34.088 9.63,34.084 M9.348,33.752 C9.434,33.869 9.527,33.979 9.627,34.081 C9.527,33.979 9.434,33.869 9.348,33.752 M9.322,33.718 C9.325,33.722 9.328,33.726 9.331,33.73 C9.328,33.726 9.325,33.722 9.322,33.718 M8.052,31.745 L8.03,31.745 C8.454,32.45 8.883,33.118 9.319,33.714 C8.892,33.129 8.468,32.469 8.052,31.745 M2.268,1.473 C2.266,1.473 2.264,1.474 2.263,1.474 C2.264,1.474 2.266,1.473 2.268,1.473 M6.073,1.434 L2.673,1.434 C2.536,1.434 2.402,1.447 2.272,1.472 C2.402,1.448 2.536,1.435 2.672,1.435 L6.073,1.434 M43.34,1.434 L40.266,1.434 L43.34,1.435 C44.523,1.435 45.464,2.399 45.464,3.572 C45.464,2.399 44.523,1.434 43.34,1.434" id="Fill-5" fill="#F6F6F6" sketch:type="MSShapeGroup"></path>
            <path d="M40.266,1.434 L6.072,1.435 L40.267,1.435 L40.266,1.434" id="Fill-6" fill="#DFBC71" sketch:type="MSShapeGroup"></path>
            <path d="M43.34,1.435 L2.672,1.435 C2.536,1.435 2.402,1.448 2.272,1.472 C2.271,1.472 2.27,1.473 2.268,1.473 C2.266,1.473 2.264,1.474 2.263,1.474 C1.676,1.589 1.181,1.946 0.875,2.434 L35.069,2.434 C36.435,2.434 37.515,3.309 37.462,4.356 C37.025,12.976 35.525,25.454 30.541,30.643 C29.869,31.343 28.795,31.745 27.661,31.745 L8.052,31.745 C8.468,32.469 8.892,33.129 9.319,33.714 C9.32,33.715 9.321,33.717 9.322,33.718 C9.325,33.722 9.328,33.726 9.331,33.73 C9.337,33.737 9.342,33.745 9.348,33.752 C9.434,33.869 9.527,33.979 9.627,34.081 C9.628,34.082 9.629,34.083 9.63,34.084 C9.634,34.088 9.638,34.092 9.642,34.096 C10.203,34.662 10.966,34.992 11.771,35.024 C11.779,35.024 11.787,35.024 11.795,35.025 C11.83,35.026 11.866,35.026 11.901,35.026 L34.112,35.026 C35.117,35.026 36.069,34.562 36.665,33.752 C41.085,27.75 45.075,13.628 45.462,3.657 C45.463,3.629 45.464,3.601 45.464,3.572 C45.464,2.399 44.523,1.435 43.34,1.435" id="Fill-7" fill="#E3E4E2" sketch:type="MSShapeGroup"></path>
            <path d="M38.417,37.39 L7.595,37.39 C5.184,37.39 2.935,36.553 1.618,35.165 L1.617,35.164 C1.158,34.68 1.664,34.038 2.505,34.038 L43.507,34.038 C44.349,34.038 44.855,34.68 44.395,35.164 L44.394,35.165 C43.077,36.553 40.829,37.39 38.417,37.39" id="Fill-8" fill="#F8F8F8" sketch:type="MSShapeGroup"></path>
            <path d="M15.925,18.632 C15.925,19.549 15.182,20.292 14.265,20.292 C13.348,20.292 12.604,19.549 12.604,18.632 C12.604,17.714 13.348,16.971 14.265,16.971 C15.182,16.971 15.925,17.714 15.925,18.632" id="Fill-9" fill="#41443E" sketch:type="MSShapeGroup"></path>
            <path d="M30.087,18.632 C30.087,19.549 30.831,20.292 31.748,20.292 C32.665,20.292 33.408,19.549 33.408,18.632 C33.408,17.714 32.665,16.971 31.748,16.971 C30.831,16.971 30.087,17.714 30.087,18.632" id="Fill-10" fill="#41443E" sketch:type="MSShapeGroup"></path>
            <path d="M14.265,21.336 C13.531,21.336 12.936,21.931 12.936,22.664 C12.936,23.398 13.531,23.993 14.265,23.993 C14.998,23.993 15.593,23.398 15.593,22.664 C15.593,21.931 14.998,21.336 14.265,21.336" id="Fill-11" fill="#EFC9CF" sketch:type="MSShapeGroup"></path>
            <path d="M31.748,21.336 C31.014,21.336 30.419,21.931 30.419,22.664 C30.419,23.398 31.014,23.993 31.748,23.993 C32.481,23.993 33.076,23.398 33.076,22.664 C33.076,21.931 32.481,21.336 31.748,21.336" id="Fill-12" fill="#EFC9CF" sketch:type="MSShapeGroup"></path>
            <path d="M20.035,23.447 C20.321,24.826 21.542,25.863 23.006,25.863 C24.47,25.863 25.691,24.826 25.978,23.447 L20.035,23.447" id="Fill-13" fill="#F492A6" sketch:type="MSShapeGroup"></path>
            <path d="M21.51,25.467 C21.952,25.718 22.462,25.862 23.006,25.862 C23.55,25.862 24.061,25.718 24.502,25.467 C24.308,24.902 23.715,24.487 23.006,24.487 C22.297,24.487 21.705,24.902 21.51,25.467" id="Fill-14" fill="#F8C9D3" sketch:type="MSShapeGroup"></path>
        </g>
    </g>
</svg>