<?xml version="1.0" encoding="UTF-8" standalone="no"?>
<svg width="47px" height="58px" viewBox="0 0 47 58" version="1.1" xmlns="http://www.w3.org/2000/svg" xmlns:xlink="http://www.w3.org/1999/xlink" xmlns:sketch="http://www.bohemiancoding.com/sketch/ns">
    <!-- Generator: Sketch Beta 3.3.2 (12041) - http://www.bohemiancoding.com/sketch -->
    <title>happy-orange</title>
    <desc>Created with Sketch Beta.</desc>
    <defs></defs>
    <g id="Page-1" stroke="none" stroke-width="1" fill="none" fill-rule="evenodd" sketch:type="MSPage">
        <g id="happy-orange" sketch:type="MSLayerGroup">
            <path d="M23.7,22.552 C22.955,22.552 22.35,21.948 22.35,21.202 L22.35,1.658 C22.35,0.912 22.955,0.308 23.7,0.308 C24.446,0.308 25.05,0.912 25.05,1.658 L25.05,21.202 C25.05,21.948 24.446,22.552 23.7,22.552" id="Fill-1" fill="#819337" sketch:type="MSShapeGroup"></path>
            <path d="M20.144,3.455 C22.738,4.523 23.975,7.492 22.908,10.086 C21.84,12.68 18.871,13.918 16.277,12.85 C13.683,11.782 9.352,4.507 9.352,4.507 C9.352,4.507 17.549,2.388 20.144,3.455" id="Fill-2" fill="#98B247" sketch:type="MSShapeGroup"></path>
            <path d="M46.835,33.19 C46.835,46.647 36.926,57.556 23.469,57.556 C10.013,57.556 0.104,46.647 0.104,33.19 C0.104,19.734 10.013,9.826 23.469,9.826 C36.926,9.826 46.835,19.734 46.835,33.19" id="Fill-3" fill="#F8883C" sketch:type="MSShapeGroup"></path>
            <path d="M23.412,57.556 L23.427,57.556 L23.412,57.556 M23.367,57.555 L23.384,57.555 L23.367,57.555 M23.324,57.555 L23.34,57.555 L23.324,57.555 M23.281,57.555 L23.296,57.555 L23.281,57.555 M23.239,57.555 L23.25,57.555 L23.239,57.555 M23.099,57.553 L23.108,57.553 L23.099,57.553 M23.055,57.552 L23.063,57.552 L23.055,57.552 M23.012,57.551 L23.018,57.551 L23.012,57.551 M46.834,33.133 L46.834,33.147 L46.834,33.133 M46.834,33.087 L46.834,33.103 L46.834,33.087 M46.834,33.042 L46.834,33.058 L46.834,33.042 M46.834,32.998 L46.834,33.012 L46.834,32.998 M46.833,32.899 L46.833,32.91 L46.833,32.899 M46.832,32.853 L46.832,32.865 L46.832,32.853 M46.832,32.808 L46.832,32.82 L46.832,32.808 M46.831,32.764 L46.831,32.771 L46.831,32.764 M46.83,32.67 L46.83,32.672 L46.83,32.67 M46.828,32.621 C46.829,32.623 46.829,32.625 46.829,32.627 C46.829,32.625 46.829,32.623 46.828,32.621 M46.828,32.577 L46.828,32.578 L46.828,32.577" id="Fill-4" fill="#ECECEC" sketch:type="MSShapeGroup"></path>
            <path d="M37.491,14.169 C40.249,18.007 41.834,22.814 41.834,28.191 C41.834,41.647 31.926,52.556 18.469,52.556 C13.302,52.556 8.661,50.942 4.9,48.198 C8.996,53.78 15.418,57.411 23.012,57.551 L23.018,57.551 C23.03,57.552 23.042,57.552 23.055,57.552 L23.063,57.552 C23.075,57.552 23.087,57.553 23.099,57.553 L23.108,57.553 C23.151,57.554 23.195,57.554 23.239,57.555 L23.25,57.555 L23.281,57.555 L23.296,57.555 L23.324,57.555 L23.34,57.555 L23.367,57.555 L23.384,57.555 C23.393,57.555 23.403,57.556 23.412,57.556 L23.427,57.556 L23.469,57.556 C36.926,57.556 46.835,46.647 46.835,33.19 C46.835,33.176 46.834,33.161 46.834,33.147 L46.834,33.133 L46.834,33.103 L46.834,33.087 L46.834,33.058 L46.834,33.042 L46.834,33.012 L46.834,32.998 C46.834,32.968 46.833,32.939 46.833,32.91 L46.833,32.899 C46.833,32.888 46.833,32.876 46.832,32.865 L46.832,32.853 L46.832,32.82 L46.832,32.808 C46.832,32.795 46.831,32.783 46.831,32.771 L46.831,32.764 C46.831,32.733 46.83,32.703 46.83,32.672 L46.83,32.67 C46.829,32.656 46.829,32.641 46.829,32.627 C46.829,32.625 46.829,32.623 46.828,32.621 L46.828,32.578 L46.828,32.577 C46.651,24.767 43.113,18.208 37.491,14.169" id="Fill-5" fill="#E4813C" sketch:type="MSShapeGroup"></path>
            <path d="M15.173,29.363 C15.173,30.324 14.394,30.303 13.434,30.303 C12.473,30.303 11.694,30.324 11.694,29.363 C11.694,28.402 12.473,27.623 13.434,27.623 C14.394,27.623 15.173,28.402 15.173,29.363" id="Fill-6" fill="#41443E" sketch:type="MSShapeGroup"></path>
            <path d="M32.227,29.363 C32.227,30.324 33.006,30.303 33.967,30.303 C34.928,30.303 35.707,30.324 35.707,29.363 C35.707,28.402 34.928,27.623 33.967,27.623 C33.006,27.623 32.227,28.402 32.227,29.363" id="Fill-7" fill="#41443E" sketch:type="MSShapeGroup"></path>
            <path d="M28.633,32.493 L18.768,32.493 C19.424,34.594 21.384,37.119 23.7,37.119 C26.017,37.119 27.977,34.594 28.633,32.493" id="Fill-8" fill="#F8A988" sketch:type="MSShapeGroup"></path>
            <path d="M22.981,33.398 C23.282,33.398 23.536,33.242 23.7,33.016 C23.865,33.242 24.118,33.398 24.419,33.398 C24.919,33.398 25.324,32.993 25.324,32.493 L22.077,32.493 C22.077,32.993 22.482,33.398 22.981,33.398" id="Fill-9" fill="#FFFFFF" sketch:type="MSShapeGroup"></path>
            <path d="M13.434,30.894 C12.786,30.894 12.262,31.419 12.262,32.066 C12.262,32.713 12.786,33.238 13.434,33.238 C14.081,33.238 14.606,32.713 14.606,32.066 C14.606,31.419 14.081,30.894 13.434,30.894" id="Fill-10" fill="#F8A988" sketch:type="MSShapeGroup"></path>
            <path d="M33.967,30.894 C33.32,30.894 32.795,31.419 32.795,32.066 C32.795,32.713 33.32,33.238 33.967,33.238 C34.614,33.238 35.139,32.713 35.139,32.066 C35.139,31.419 34.614,30.894 33.967,30.894" id="Fill-11" fill="#F8A988" sketch:type="MSShapeGroup"></path>
            <path d="M11.104,42.807 C10.465,42.807 9.947,43.325 9.947,43.964 C9.947,44.603 10.465,45.121 11.104,45.121 C11.743,45.121 12.262,44.603 12.262,43.964 C12.262,43.325 11.743,42.807 11.104,42.807" id="Fill-12" fill="#E4813C" sketch:type="MSShapeGroup"></path>
            <path d="M26.809,42.807 C26.17,42.807 25.652,43.325 25.652,43.964 C25.652,44.603 26.17,45.121 26.809,45.121 C27.448,45.121 27.966,44.603 27.966,43.964 C27.966,43.325 27.448,42.807 26.809,42.807" id="Fill-13" fill="#E4813C" sketch:type="MSShapeGroup"></path>
            <path d="M16.321,37.801 C15.682,37.801 15.164,38.319 15.164,38.958 C15.164,39.597 15.682,40.116 16.321,40.116 C16.961,40.116 17.479,39.597 17.479,38.958 C17.479,38.319 16.961,37.801 16.321,37.801" id="Fill-14" fill="#E4813C" sketch:type="MSShapeGroup"></path>
            <path d="M6.476,34.705 C5.836,34.705 5.319,35.223 5.319,35.862 C5.319,36.501 5.836,37.02 6.476,37.02 C7.115,37.02 7.633,36.501 7.633,35.862 C7.633,35.223 7.115,34.705 6.476,34.705" id="Fill-15" fill="#E4813C" sketch:type="MSShapeGroup"></path>
            <path d="M34.829,35.961 C34.19,35.961 33.672,36.479 33.672,37.119 C33.672,37.758 34.19,38.276 34.829,38.276 C35.468,38.276 35.986,37.758 35.986,37.119 C35.986,36.479 35.468,35.961 34.829,35.961" id="Fill-16" fill="#E4813C" sketch:type="MSShapeGroup"></path>
            <path d="M20.483,46.743 C19.844,46.743 19.326,47.261 19.326,47.9 C19.326,48.539 19.844,49.057 20.483,49.057 C21.122,49.057 21.64,48.539 21.64,47.9 C21.64,47.261 21.122,46.743 20.483,46.743" id="Fill-17" fill="#E4813C" sketch:type="MSShapeGroup"></path>
        </g>
    </g>
</svg>