<?xml version="1.0" encoding="UTF-8" standalone="no"?>
<svg width="61px" height="52px" viewBox="0 0 61 52" version="1.1" xmlns="http://www.w3.org/2000/svg" xmlns:xlink="http://www.w3.org/1999/xlink" xmlns:sketch="http://www.bohemiancoding.com/sketch/ns">
    <!-- Generator: Sketch Beta 3.3.2 (12041) - http://www.bohemiancoding.com/sketch -->
    <title>happy-mug</title>
    <desc>Created with Sketch Beta.</desc>
    <defs></defs>
    <g id="Page-1" stroke="none" stroke-width="1" fill="none" fill-rule="evenodd" sketch:type="MSPage">
        <g id="happy-mug" sketch:type="MSLayerGroup">
            <path d="M44.454,45.647 C35.354,45.647 27.95,38.243 27.95,29.143 C27.95,20.043 35.354,12.639 44.454,12.639 C53.554,12.639 60.958,20.043 60.958,29.143 C60.958,38.243 53.554,45.647 44.454,45.647 M44.454,17.338 C37.945,17.338 32.649,22.633 32.649,29.143 C32.649,35.652 37.945,40.948 44.454,40.948 C50.963,40.948 56.259,35.652 56.259,29.143 C56.259,22.633 50.963,17.338 44.454,17.338" id="Fill-1" fill="#C0C4BC" sketch:type="MSShapeGroup"></path>
            <path d="M40.647,51.943 L5.995,51.943 C4.76,51.943 3.736,50.987 3.651,49.755 L0.451,3.278 C0.357,1.92 1.434,0.767 2.795,0.767 L43.848,0.767 C45.209,0.767 46.285,1.92 46.192,3.278 L42.991,49.755 C42.906,50.987 41.882,51.943 40.647,51.943" id="Fill-2" fill="#D5D8D2" sketch:type="MSShapeGroup"></path>
            <path d="M43.848,0.767 L2.795,0.767 C1.434,0.767 0.357,1.92 0.451,3.278 L0.58,5.161 L46.062,5.161 L46.192,3.278 C46.285,1.92 45.209,0.767 43.848,0.767" id="Fill-3" fill="#5FA0D6" sketch:type="MSShapeGroup"></path>
            <path d="M41.623,51.731 C41.325,51.867 40.995,51.943 40.647,51.943 C40.995,51.943 41.325,51.867 41.623,51.731 M43.277,45.605 L42.991,49.755 L43.277,45.605 M45.222,17.362 L43.6,40.917 L45.222,17.362 M46.192,3.278 L45.545,12.674 L46.192,3.278" id="Fill-4" fill="#F6F6F6" sketch:type="MSShapeGroup"></path>
            <path d="M43.6,40.917 L43.277,45.605 L43.6,40.917 M45.545,12.674 L45.222,17.362 L45.545,12.674" id="Fill-5" fill="#BABDB6" sketch:type="MSShapeGroup"></path>
            <path d="M33.588,28.508 C32.941,28.508 32.416,27.984 32.416,27.336 C32.416,26.689 32.941,26.164 33.588,26.164 C34.235,26.164 34.76,26.689 34.76,27.336 C34.76,27.984 34.235,28.508 33.588,28.508 M46.192,3.278 L46.062,5.161 L27.95,5.161 L27.95,48.752 L7.719,48.752 L7.789,49.755 C7.873,50.987 8.898,51.943 10.132,51.943 L6.995,51.943 C5.76,51.943 4.736,50.987 4.651,49.755 L4.582,48.752 L3.582,48.752 L3.651,49.755 C3.736,50.987 4.76,51.943 5.995,51.943 L40.647,51.943 C40.995,51.943 41.325,51.867 41.623,51.731 C41.855,51.625 42.066,51.483 42.251,51.311 C42.672,50.918 42.949,50.371 42.991,49.755 L46.192,3.278" id="Fill-6" fill="#CDD0CA" sketch:type="MSShapeGroup"></path>
            <path d="M43.848,0.767 L27.95,0.767 L27.95,5.161 L46.062,5.161 L46.192,3.278 C46.196,3.222 46.197,3.167 46.197,3.112 C46.197,1.827 45.153,0.767 43.848,0.767" id="Fill-7" fill="#5D9BCE" sketch:type="MSShapeGroup"></path>
            <path d="M14.794,23.633 C14.794,24.594 14.015,24.573 13.055,24.573 C12.094,24.573 11.315,24.594 11.315,23.633 C11.315,22.672 12.094,21.893 13.055,21.893 C14.015,21.893 14.794,22.672 14.794,23.633" id="Fill-8" fill="#41443E" sketch:type="MSShapeGroup"></path>
            <path d="M31.848,23.633 C31.848,24.594 32.627,24.573 33.588,24.573 C34.549,24.573 35.328,24.594 35.328,23.633 C35.328,22.672 34.549,21.893 33.588,21.893 C32.627,21.893 31.848,22.672 31.848,23.633" id="Fill-9" fill="#41443E" sketch:type="MSShapeGroup"></path>
            <path d="M16.749,29.161 C17.622,31.96 20.235,33.992 23.321,33.992 C26.408,33.992 29.02,31.96 29.894,29.161 L16.749,29.161" id="Fill-10" fill="#F492A6" sketch:type="MSShapeGroup"></path>
            <path d="M22.363,30.366 C22.764,30.366 23.102,30.158 23.321,29.857 C23.54,30.158 23.878,30.366 24.279,30.366 C24.945,30.366 25.485,29.827 25.485,29.161 L21.158,29.161 C21.158,29.827 21.698,30.366 22.363,30.366" id="Fill-11" fill="#FFFFFF" sketch:type="MSShapeGroup"></path>
            <path d="M4.718,5.161 L1.581,5.161 L4.582,48.752 L7.719,48.752 L4.718,5.161" id="Fill-12" fill="#DDE0DB" sketch:type="MSShapeGroup"></path>
            <path d="M6.932,0.767 L3.795,0.767 C2.434,0.767 1.357,1.92 1.451,3.278 L1.581,5.161 L4.718,5.161 L4.588,3.278 C4.494,1.92 5.571,0.767 6.932,0.767" id="Fill-13" fill="#7FB3DE" sketch:type="MSShapeGroup"></path>
            <path d="M7.719,48.752 L4.582,48.752 L4.651,49.755 C4.736,50.987 5.76,51.943 6.995,51.943 L10.132,51.943 C8.898,51.943 7.873,50.987 7.789,49.755 L7.719,48.752" id="Fill-14" fill="#D7D9D5" sketch:type="MSShapeGroup"></path>
            <path d="M13.055,26.164 C12.407,26.164 11.883,26.689 11.883,27.336 C11.883,27.984 12.407,28.508 13.055,28.508 C13.702,28.508 14.227,27.984 14.227,27.336 C14.227,26.689 13.702,26.164 13.055,26.164" id="Fill-15" fill="#E5B5BC" sketch:type="MSShapeGroup"></path>
            <path d="M33.588,26.164 C32.941,26.164 32.416,26.689 32.416,27.336 C32.416,27.984 32.941,28.508 33.588,28.508 C34.235,28.508 34.76,27.984 34.76,27.336 C34.76,26.689 34.235,26.164 33.588,26.164" id="Fill-16" fill="#E1B1B8" sketch:type="MSShapeGroup"></path>
        </g>
    </g>
</svg>