<?xml version="1.0" encoding="UTF-8" standalone="no"?>
<svg width="50px" height="57px" viewBox="0 0 50 57" version="1.1" xmlns="http://www.w3.org/2000/svg" xmlns:xlink="http://www.w3.org/1999/xlink" xmlns:sketch="http://www.bohemiancoding.com/sketch/ns">
    <!-- Generator: Sketch Beta 3.3.2 (12041) - http://www.bohemiancoding.com/sketch -->
    <title>happy-apple</title>
    <desc>Created with Sketch Beta.</desc>
    <defs></defs>
    <g id="Page-1" stroke="none" stroke-width="1" fill="none" fill-rule="evenodd" sketch:type="MSPage">
        <g id="happy-apple" sketch:type="MSLayerGroup">
            <path d="M24.873,22.411 C24.127,22.411 23.523,21.807 23.523,21.062 L23.523,1.517 C23.523,0.771 24.127,0.167 24.873,0.167 C25.619,0.167 26.223,0.771 26.223,1.517 L26.223,21.062 C26.223,21.807 25.619,22.411 24.873,22.411" id="Fill-1" fill="#819337" sketch:type="MSShapeGroup"></path>
            <path d="M21.316,3.314 C23.911,4.382 25.148,7.351 24.08,9.945 C23.013,12.539 20.044,13.777 17.45,12.709 C14.855,11.641 10.524,4.366 10.524,4.366 C10.524,4.366 18.722,2.247 21.316,3.314" id="Fill-2" fill="#98B247" sketch:type="MSShapeGroup"></path>
            <path d="M45.812,15.599 C36.907,6.836 30.723,12.897 24.873,12.897 C19.023,12.897 12.839,6.836 3.934,15.599 C-4.971,24.362 4.179,63.519 21.183,55.129 C23.527,53.973 23.485,53.891 24.873,53.891 C26.26,53.891 26.219,53.973 28.563,55.129 C45.567,63.519 54.716,24.362 45.812,15.599" id="Fill-3" fill="#B8D86A" sketch:type="MSShapeGroup"></path>
            <path d="M45.77,15.558 C45.784,15.572 45.798,15.585 45.812,15.599 C46.443,16.221 46.984,16.994 47.437,17.894 C46.984,16.994 46.443,16.221 45.812,15.599 C45.798,15.585 45.784,15.571 45.77,15.558 M40.237,11.718 C41.964,12.424 43.799,13.627 45.766,15.554 C43.799,13.627 41.964,12.424 40.237,11.718" id="Fill-4" fill="#F6F6F6" sketch:type="MSShapeGroup"></path>
            <path d="M35.865,10.855 C34.153,10.855 32.543,11.214 31,11.63 C32.81,12.326 34.736,13.556 36.812,15.599 C43.965,22.639 39.466,49.285 28.606,55.149 C30.218,55.937 31.759,56.298 33.221,56.298 C46.06,56.298 52.766,28.462 47.437,17.894 C46.984,16.994 46.443,16.221 45.812,15.599 C45.798,15.585 45.784,15.572 45.77,15.558 C45.769,15.557 45.767,15.555 45.766,15.554 C43.799,13.627 41.964,12.424 40.237,11.718 C38.701,11.09 37.25,10.855 35.865,10.855" id="Fill-5" fill="#B2D068" sketch:type="MSShapeGroup"></path>
            <path d="M15.805,32.757 C15.805,33.655 15.078,33.303 14.18,33.303 C13.282,33.303 12.554,33.655 12.554,32.757 C12.554,31.86 13.282,31.132 14.18,31.132 C15.078,31.132 15.805,31.86 15.805,32.757" id="Fill-6" fill="#41443E" sketch:type="MSShapeGroup"></path>
            <path d="M33.94,32.757 C33.94,33.655 34.668,33.303 35.566,33.303 C36.464,33.303 37.192,33.655 37.192,32.757 C37.192,31.86 36.464,31.132 35.566,31.132 C34.668,31.132 33.94,31.86 33.94,32.757" id="Fill-7" fill="#41443E" sketch:type="MSShapeGroup"></path>
            <path d="M28.932,39.42 C28.932,40.708 27.114,43.552 24.873,43.552 C22.631,43.552 20.814,40.708 20.814,39.42 C20.814,38.131 22.631,37.087 24.873,37.087 C27.114,37.087 28.932,38.131 28.932,39.42" id="Fill-8" fill="#98B247" sketch:type="MSShapeGroup"></path>
            <path d="M24.873,40.394 C23.61,40.394 22.498,40.928 21.823,41.74 C22.567,42.712 23.656,43.552 24.873,43.552 C26.09,43.552 27.179,42.712 27.923,41.74 C27.247,40.928 26.136,40.394 24.873,40.394" id="Fill-9" fill="#F492A6" sketch:type="MSShapeGroup"></path>
            <path d="M12.585,14.54 C12.068,14.54 11.511,14.616 10.947,14.778 C8.915,15.362 7.554,16.829 7.906,18.057 C8.161,18.943 9.239,19.462 10.584,19.462 C11.102,19.462 11.658,19.385 12.223,19.223 C14.254,18.64 15.616,17.172 15.263,15.945 C15.009,15.058 13.93,14.54 12.585,14.54" id="Fill-10" fill="#C6E088" sketch:type="MSShapeGroup"></path>
            <path d="M14.18,34.919 C12.969,34.919 11.988,35.487 11.988,36.187 C11.988,36.887 12.969,37.455 14.18,37.455 C15.39,37.455 16.372,36.887 16.372,36.187 C16.372,35.487 15.39,34.919 14.18,34.919" id="Fill-11" fill="#CAC37C" sketch:type="MSShapeGroup"></path>
            <path d="M35.566,34.919 C34.356,34.919 33.374,35.487 33.374,36.187 C33.374,36.887 34.356,37.455 35.566,37.455 C36.776,37.455 37.758,36.887 37.758,36.187 C37.758,35.487 36.776,34.919 35.566,34.919" id="Fill-12" fill="#CAC37C" sketch:type="MSShapeGroup"></path>
        </g>
    </g>
</svg>