<?xml version="1.0" encoding="UTF-8" standalone="no"?>
<svg width="39px" height="88px" viewBox="0 0 39 88" version="1.1" xmlns="http://www.w3.org/2000/svg" xmlns:xlink="http://www.w3.org/1999/xlink" xmlns:sketch="http://www.bohemiancoding.com/sketch/ns">
    <!-- Generator: Sketch Beta 3.3.2 (12041) - http://www.bohemiancoding.com/sketch -->
    <title>happy-milk-bottle</title>
    <desc>Created with Sketch Beta.</desc>
    <defs></defs>
    <g id="Page-1" stroke="none" stroke-width="1" fill="none" fill-rule="evenodd" sketch:type="MSPage">
        <g id="happy-milk-bottle" sketch:type="MSLayerGroup">
            <path d="M37.909,43.307 C36.852,26.516 27.465,17.106 27.557,7.451 L19.287,6.33 L11.017,7.451 C11.11,17.106 1.722,26.516 0.666,43.307 C-0.044,54.587 0.321,72.962 0.986,82.656 C1.166,85.279 3.345,87.315 5.974,87.315 L32.6,87.315 C35.23,87.315 37.409,85.279 37.589,82.656 C38.254,72.962 38.618,54.587 37.909,43.307" id="Fill-1" fill="#D5D8D2" sketch:type="MSShapeGroup"></path>
            <path d="M31.246,27.984 L7.329,27.984 C5.568,32.465 4.038,37.489 3.66,43.496 C2.942,54.895 3.359,73.413 3.979,82.45 C4.051,83.496 4.927,84.314 5.974,84.314 L32.601,84.314 C33.648,84.314 34.524,83.495 34.596,82.45 C35.216,73.414 35.632,54.897 34.914,43.496 C34.537,37.489 33.006,32.465 31.246,27.984" id="Fill-2" fill="#FFFFFF" sketch:type="MSShapeGroup"></path>
            <path d="M15.828,10.039 L12.828,10.039 C11.499,18.847 3.628,28.016 2.666,43.307 C1.956,54.587 2.321,72.962 2.986,82.656 C3.166,85.279 5.345,87.315 7.974,87.315 L10.974,87.315 C8.934,87.315 7.165,86.089 6.39,84.314 L5.974,84.314 C4.927,84.314 4.051,83.496 3.979,82.45 C3.359,73.413 2.942,54.895 3.66,43.496 C4.038,37.489 5.568,32.465 7.329,27.984 L9.102,27.984 C11.736,20.98 15.013,15.442 15.828,10.039" id="Fill-3" fill="#DDE0DB" sketch:type="MSShapeGroup"></path>
            <path d="M9.102,27.984 L7.329,27.984 C5.568,32.465 4.038,37.489 3.66,43.496 C2.942,54.895 3.359,73.413 3.979,82.45 C4.051,83.496 4.927,84.314 5.974,84.314 L6.39,84.314 C6.167,83.802 6.026,83.244 5.986,82.656 C5.321,72.962 4.956,54.587 5.666,43.307 C6.038,37.396 7.443,32.399 9.102,27.984" id="Fill-4" fill="#FFFFFF" sketch:type="MSShapeGroup"></path>
            <path d="M35.697,86.24 C34.843,86.915 33.766,87.315 32.6,87.315 C33.766,87.315 34.843,86.915 35.697,86.24" id="Fill-5" fill="#F6F6F6" sketch:type="MSShapeGroup"></path>
            <path d="M27.747,10.039 L19.034,10.039 C19.304,15.442 20.497,20.98 21.602,27.984 L31.246,27.984 C33.006,32.465 34.537,37.489 34.914,43.496 C35.632,54.897 35.216,73.414 34.596,82.45 C34.524,83.495 33.648,84.314 32.601,84.314 L22.606,84.314 C21.832,86.089 20.063,87.315 18.022,87.315 L32.6,87.315 C33.766,87.315 34.843,86.915 35.697,86.24 C36.769,85.394 37.488,84.116 37.589,82.656 C38.188,73.918 38.544,58.127 38.088,46.837 C38.038,45.601 37.979,44.419 37.909,43.307 C36.946,28.016 29.076,18.847 27.747,10.039" id="Fill-6" fill="#CDD0CA" sketch:type="MSShapeGroup"></path>
            <path d="M31.246,27.984 L21.602,27.984 C22.298,32.399 22.959,37.396 23.331,43.307 C24.041,54.587 23.676,72.962 23.011,82.656 C22.971,83.244 22.83,83.802 22.606,84.314 L32.601,84.314 C33.648,84.314 34.524,83.495 34.596,82.45 C35.216,73.414 35.632,54.897 34.914,43.496 C34.537,37.489 33.006,32.465 31.246,27.984" id="Fill-7" fill="#F6F6F6" sketch:type="MSShapeGroup"></path>
            <path d="M28.934,10.039 L9.641,10.039 C9.088,10.039 8.64,9.591 8.64,9.039 L8.64,1.622 C8.64,1.069 9.088,0.622 9.641,0.622 L28.934,0.622 C29.486,0.622 29.934,1.069 29.934,1.622 L29.934,9.039 C29.934,9.591 29.486,10.039 28.934,10.039" id="Fill-8" fill="#EF4B3A" sketch:type="MSShapeGroup"></path>
            <path d="M8.64,7.403 L8.64,9.039 C8.64,9.591 9.088,10.039 9.64,10.039 C9.088,10.039 8.64,9.591 8.64,9.039 L8.64,7.417 L8.64,7.403" id="Fill-9" fill="#C6C7C5" sketch:type="MSShapeGroup"></path>
            <path d="M29.934,7.403 C29.934,7.956 29.486,8.403 28.934,8.403 L9.64,8.403 C9.093,8.403 8.648,7.963 8.64,7.417 L8.64,9.039 C8.64,9.591 9.088,10.039 9.641,10.039 L28.934,10.039 C29.486,10.039 29.934,9.591 29.934,9.039 L29.934,7.403" id="Fill-10" fill="#BA493B" sketch:type="MSShapeGroup"></path>
            <path d="M9.898,67.879 C10.35,68.662 11.206,69.207 12.194,69.207 C13.181,69.207 14.037,68.662 14.49,67.879 C14.767,67.402 14.606,66.789 14.128,66.512 C13.651,66.234 13.039,66.396 12.761,66.873 C12.638,67.08 12.434,67.207 12.194,67.207 C11.954,67.207 11.75,67.08 11.626,66.873 C11.349,66.396 10.737,66.234 10.259,66.512 C9.782,66.789 9.62,67.402 9.898,67.879" id="Fill-11" fill="#41443E" sketch:type="MSShapeGroup"></path>
            <path d="M26.948,66.873 C26.825,67.08 26.621,67.207 26.381,67.207 C26.141,67.207 25.936,67.079 25.813,66.873 C25.536,66.396 24.923,66.234 24.446,66.512 C23.969,66.789 23.807,67.401 24.085,67.879 C24.537,68.662 25.393,69.207 26.381,69.207 C27.368,69.207 28.224,68.662 28.677,67.879 C28.954,67.402 28.793,66.79 28.315,66.512 C27.838,66.234 27.226,66.396 26.948,66.873" id="Fill-12" fill="#41443E" sketch:type="MSShapeGroup"></path>
            <path d="M20.949,73.034 C20.949,74.322 20.205,75.367 19.287,75.367 C18.37,75.367 17.626,74.322 17.626,73.034 C17.626,71.745 18.37,70.7 19.287,70.7 C20.205,70.7 20.949,71.745 20.949,73.034" id="Fill-13" fill="#F492A6" sketch:type="MSShapeGroup"></path>
        </g>
    </g>
</svg>