<?xml version="1.0" encoding="UTF-8" standalone="no"?>
<svg width="66px" height="56px" viewBox="0 0 66 56" version="1.1" xmlns="http://www.w3.org/2000/svg" xmlns:xlink="http://www.w3.org/1999/xlink" xmlns:sketch="http://www.bohemiancoding.com/sketch/ns">
    <!-- Generator: Sketch Beta 3.3.2 (12041) - http://www.bohemiancoding.com/sketch -->
    <title>happy-breakfast</title>
    <desc>Created with Sketch Beta.</desc>
    <defs></defs>
    <g id="Page-1" stroke="none" stroke-width="1" fill="none" fill-rule="evenodd" sketch:type="MSPage">
        <g id="happy-breakfast" sketch:type="MSLayerGroup">
            <path d="M52.781,26.689 C52.781,30.105 50.177,32.979 48.945,35.949 C47.669,39.028 47.43,42.889 45.109,45.21 C42.789,47.53 38.928,47.769 35.849,49.046 C32.878,50.277 30.005,52.881 26.589,52.881 C23.173,52.881 20.299,50.277 17.329,49.046 C14.25,47.769 10.388,47.53 8.068,45.209 C5.748,42.889 5.509,39.028 4.232,35.949 C3,32.979 0.397,30.105 0.397,26.689 C0.397,23.273 3,20.399 4.232,17.429 C5.509,14.35 5.748,10.489 8.068,8.168 C10.389,5.848 14.25,5.609 17.329,4.332 C20.299,3.101 23.173,0.497 26.589,0.497 C30.005,0.497 32.878,3.101 35.849,4.332 C38.928,5.609 42.789,5.848 45.109,8.169 C47.43,10.489 47.669,14.35 48.945,17.429 C50.177,20.399 52.781,23.273 52.781,26.689" id="Fill-1" fill="#F9F0D9" sketch:type="MSShapeGroup"></path>
            <path d="M37.769,48.38 C37.11,48.577 36.464,48.791 35.849,49.046 C33.238,50.128 30.702,52.271 27.807,52.774 C30.702,52.271 33.238,50.128 35.849,49.046 C36.464,48.791 37.11,48.577 37.769,48.38" id="Fill-2" fill="#F6F6F6" sketch:type="MSShapeGroup"></path>
            <path d="M7.614,44.663 C7.762,44.847 7.899,45.04 8.068,45.209 C10.388,47.53 14.25,47.769 17.329,49.046 C20.299,50.277 23.173,52.881 26.589,52.881 C27.002,52.881 27.408,52.843 27.807,52.774 C30.702,52.271 33.238,50.128 35.849,49.046 C36.464,48.791 37.11,48.577 37.769,48.38 L36.291,47.527 C35.798,47.683 35.315,47.853 34.849,48.046 C31.878,49.277 29.004,51.881 25.589,51.881 C22.173,51.881 19.299,49.277 16.329,48.046 C13.474,46.862 9.963,46.549 7.614,44.663 M44.563,7.715 C46.449,10.063 46.762,13.574 47.945,16.429 C48.229,17.114 48.586,17.794 48.967,18.476 C49.022,18.288 49.082,18.093 49.148,17.892 C49.077,17.738 49.01,17.584 48.945,17.429 C48.908,17.339 48.872,17.248 48.836,17.156 C47.653,14.125 47.362,10.421 45.109,8.169 C44.94,8 44.747,7.863 44.563,7.715" id="Fill-3" fill="#F0E7D1" sketch:type="MSShapeGroup"></path>
            <path d="M37.927,48.333 C37.874,48.349 37.822,48.364 37.769,48.38 L37.776,48.384 C37.825,48.369 37.873,48.355 37.922,48.341 C37.924,48.338 37.926,48.335 37.927,48.333 M49.149,17.89 C49.149,17.891 49.149,17.891 49.148,17.892 C50.269,20.326 52.175,22.716 52.664,25.418 C52.176,22.715 50.27,20.324 49.149,17.89" id="Fill-4" fill="#F7ECEC" sketch:type="MSShapeGroup"></path>
            <path d="M48.967,18.476 C48.728,19.305 48.596,20.011 48.483,20.617 C48.31,21.557 48.237,21.942 47.637,22.981 C47.032,24.029 46.735,24.285 46.008,24.904 C44.912,25.842 43.402,27.118 41.762,29.958 C40.122,32.799 39.772,34.745 39.508,36.163 C39.335,37.102 39.263,37.487 38.657,38.535 C38.057,39.574 37.76,39.83 37.033,40.449 C35.937,41.387 34.427,42.663 32.787,45.503 L36.291,47.527 C37.238,47.227 38.221,46.974 39.184,46.693 C39.997,45.757 40.731,45.134 41.338,44.614 C42.065,43.995 42.363,43.74 42.963,42.7 C43.568,41.653 43.64,41.267 43.813,40.328 C44.078,38.91 44.427,36.964 46.067,34.124 C47.707,31.283 49.218,30.007 50.313,29.069 C50.799,28.656 51.093,28.404 51.415,27.971 C51.643,27.234 51.781,26.476 51.781,25.689 C51.781,23.061 50.239,20.753 48.967,18.476" id="Fill-5" fill="#F1DEC9" sketch:type="MSShapeGroup"></path>
            <path d="M37.927,48.333 C37.874,48.348 37.822,48.364 37.769,48.38 C37.822,48.364 37.874,48.349 37.927,48.333" id="Fill-6" fill="#EDE3E2" sketch:type="MSShapeGroup"></path>
            <path d="M39.184,46.693 C38.221,46.974 37.238,47.227 36.291,47.527 L37.769,48.38 C37.822,48.364 37.874,48.348 37.927,48.333 C38.362,47.693 38.782,47.155 39.184,46.693 M49.148,17.892 C49.082,18.093 49.022,18.288 48.967,18.476 C50.239,20.753 51.781,23.061 51.781,25.689 C51.781,26.476 51.643,27.234 51.415,27.971 C51.575,27.755 51.742,27.495 51.943,27.147 C52.388,26.375 52.543,25.964 52.664,25.418 C52.175,22.716 50.269,20.326 49.148,17.892" id="Fill-7" fill="#E9D6C2" sketch:type="MSShapeGroup"></path>
            <path d="M55.042,18.578 L65.435,24.578 C64.83,25.626 64.757,26.012 64.589,26.942 C64.334,28.365 63.975,30.306 62.335,33.147 C60.69,35.996 59.189,37.277 58.084,38.21 C57.362,38.82 57.065,39.076 56.459,40.123 C55.855,41.171 55.782,41.557 55.614,42.488 C55.359,43.91 55,45.851 53.355,48.7 C51.715,51.541 50.214,52.822 49.109,53.755 C48.387,54.365 48.09,54.621 47.485,55.669 L37.092,49.669 C38.732,46.828 40.243,45.552 41.338,44.614 C42.065,43.995 42.363,43.74 42.963,42.7 C43.568,41.653 43.64,41.267 43.813,40.328 C44.078,38.91 44.427,36.964 46.067,34.124 C47.707,31.283 49.218,30.007 50.313,29.069 C51.04,28.45 51.338,28.195 51.943,27.147 C52.543,26.108 52.615,25.722 52.788,24.783 C53.053,23.365 53.402,21.419 55.042,18.578" id="Fill-8" fill="#DD774A" sketch:type="MSShapeGroup"></path>
            <path d="M56.774,19.578 L63.703,23.578 C62.963,24.86 62.826,25.497 62.626,26.583 C62.38,27.93 62.073,29.601 60.603,32.147 C59.133,34.693 57.834,35.802 56.796,36.681 C55.951,37.405 55.473,37.833 54.728,39.124 C53.988,40.405 53.851,41.042 53.651,42.128 C53.4,43.484 53.093,45.154 51.623,47.7 C50.158,50.238 48.864,51.339 47.821,52.226 C46.976,52.95 46.493,53.387 45.753,54.669 L38.825,50.669 C40.289,48.131 41.597,47.027 42.631,46.135 C43.485,45.415 43.955,44.982 44.695,43.7 C45.44,42.41 45.581,41.787 45.785,40.693 C46.032,39.345 46.329,37.67 47.799,35.124 C49.264,32.586 50.572,31.482 51.615,30.595 C52.461,29.87 52.93,29.437 53.675,28.147 C54.415,26.865 54.555,26.242 54.76,25.147 C55.007,23.8 55.309,22.116 56.774,19.578" id="Fill-9" fill="#F4AF9A" sketch:type="MSShapeGroup"></path>
            <path d="M58.506,20.578 L61.971,22.578 C61.085,24.111 60.886,24.977 60.658,26.232 C60.43,27.486 60.166,28.904 58.871,31.147 C57.571,33.398 56.475,34.336 55.503,35.16 C54.531,35.985 53.88,36.591 52.995,38.124 C52.11,39.656 51.911,40.523 51.683,41.777 C51.456,43.031 51.186,44.457 49.891,46.7 C48.601,48.935 47.505,49.873 46.528,50.706 C45.556,51.53 44.905,52.136 44.02,53.669 L40.556,51.669 C41.846,49.434 42.956,48.493 43.928,47.668 C44.892,46.839 45.542,46.233 46.427,44.7 C47.317,43.159 47.517,42.293 47.748,41.052 C47.976,39.798 48.236,38.367 49.531,36.124 C50.826,33.88 51.931,32.948 52.908,32.115 C53.867,31.294 54.517,30.688 55.407,29.147 C56.292,27.614 56.492,26.748 56.723,25.507 C56.956,24.244 57.211,22.821 58.506,20.578" id="Fill-10" fill="#DB5C4B" sketch:type="MSShapeGroup"></path>
            <path d="M52.88,24.298 C52.847,24.466 52.817,24.628 52.788,24.783 C52.744,25.024 52.706,25.229 52.664,25.418 C52.706,25.229 52.744,25.024 52.788,24.783 C52.817,24.628 52.847,24.466 52.88,24.298 M55.042,18.578 L55.042,18.578 L61.716,22.432 L55.042,18.578" id="Fill-11" fill="#E5C7C5" sketch:type="MSShapeGroup"></path>
            <path d="M52.664,25.418 L52.664,25.419 L52.664,25.418" id="Fill-12" fill="#DFB9B7" sketch:type="MSShapeGroup"></path>
            <path d="M52.664,25.418 C52.543,25.964 52.388,26.375 51.943,27.147 C51.742,27.495 51.575,27.755 51.415,27.971 C51.575,27.755 51.742,27.495 51.943,27.147 C52.388,26.375 52.543,25.964 52.664,25.419 L52.664,25.418" id="Fill-13" fill="#D5AA9A" sketch:type="MSShapeGroup"></path>
            <path d="M54.105,40.374 C53.896,40.902 53.795,41.359 53.687,41.935 C53.873,41.361 54.003,40.844 54.105,40.374 M63.08,24.828 C62.871,25.357 62.77,25.815 62.662,26.392 C62.848,25.818 62.979,25.299 63.08,24.828 M55.042,18.578 C53.582,21.108 53.145,22.928 52.88,24.298 C52.847,24.466 52.817,24.628 52.788,24.783 C52.744,25.024 52.706,25.229 52.664,25.418 L52.664,25.419 C52.543,25.964 52.388,26.375 51.943,27.147 C51.742,27.495 51.575,27.755 51.415,27.971 C51.093,28.404 50.799,28.656 50.313,29.069 C49.218,30.007 47.707,31.283 46.067,34.124 C44.427,36.964 44.078,38.91 43.813,40.328 C43.64,41.267 43.568,41.653 42.963,42.7 C42.363,43.74 42.065,43.995 41.338,44.614 C40.501,45.331 39.42,46.252 38.225,47.911 L39.965,48.916 C40.97,47.555 41.874,46.788 42.631,46.135 C43.485,45.415 43.955,44.982 44.695,43.7 C45.44,42.41 45.581,41.787 45.785,40.693 C46.032,39.345 46.329,37.67 47.799,35.124 C49.264,32.586 50.572,31.482 51.615,30.595 C52.461,29.87 52.93,29.437 53.675,28.147 C54.415,26.865 54.555,26.242 54.76,25.147 C55.007,23.8 55.309,22.116 56.774,19.578 L55.042,18.578" id="Fill-14" fill="#CD6846" sketch:type="MSShapeGroup"></path>
            <path d="M61.971,22.578 C61.085,24.111 60.886,24.977 60.658,26.232 C60.43,27.486 60.166,28.904 58.871,31.147 C57.571,33.398 56.475,34.336 55.503,35.16 C54.531,35.985 53.88,36.591 52.995,38.124 C52.11,39.656 51.911,40.523 51.683,41.777 C51.456,43.031 51.186,44.457 49.891,46.7 C48.601,48.935 47.505,49.873 46.528,50.706 C46.032,51.126 45.62,51.49 45.218,51.948 L46.179,52.503 C46.784,51.456 47.082,51.2 47.804,50.589 C48.908,49.657 50.41,48.376 52.05,45.535 C52.861,44.129 53.36,42.945 53.687,41.935 C53.795,41.359 53.896,40.902 54.105,40.374 C54.187,39.994 54.251,39.645 54.309,39.322 C54.477,38.392 54.549,38.006 55.154,36.958 C55.759,35.91 56.056,35.655 56.779,35.044 C57.883,34.112 59.385,32.831 61.03,29.981 C61.838,28.582 62.335,27.4 62.662,26.392 C62.77,25.815 62.871,25.357 63.08,24.828 C63.163,24.448 63.226,24.1 63.284,23.777 C63.31,23.632 63.334,23.503 63.358,23.379 L61.971,22.578 M56.774,19.578 L56.774,19.578 C55.309,22.116 55.007,23.8 54.76,25.147 C54.555,26.242 54.415,26.865 53.675,28.147 C52.93,29.437 52.461,29.87 51.615,30.595 C50.572,31.482 49.264,32.586 47.799,35.124 C46.329,37.67 46.032,39.345 45.785,40.693 C45.581,41.787 45.44,42.41 44.695,43.7 C43.955,44.982 43.485,45.415 42.631,46.135 C41.874,46.788 40.97,47.555 39.965,48.916 L41.709,49.923 C42.524,48.86 43.258,48.236 43.928,47.668 C44.892,46.839 45.542,46.233 46.427,44.7 C47.317,43.159 47.517,42.293 47.748,41.052 C47.976,39.798 48.236,38.367 49.531,36.124 C50.826,33.88 51.931,32.948 52.908,32.115 C53.867,31.294 54.517,30.688 55.407,29.147 C56.292,27.614 56.492,26.748 56.723,25.507 C56.956,24.244 57.211,22.821 58.506,20.578 L56.774,19.578" id="Fill-15" fill="#DD8F7E" sketch:type="MSShapeGroup"></path>
            <path d="M58.506,20.578 L58.506,20.578 C57.211,22.821 56.956,24.244 56.723,25.507 C56.492,26.748 56.292,27.614 55.407,29.147 C54.517,30.688 53.867,31.294 52.908,32.115 C51.931,32.948 50.826,33.88 49.531,36.124 C48.236,38.367 47.976,39.798 47.748,41.052 C47.517,42.293 47.317,43.159 46.427,44.7 C45.542,46.233 44.892,46.839 43.928,47.668 C43.258,48.236 42.524,48.86 41.709,49.923 L45.218,51.948 C45.62,51.49 46.032,51.126 46.528,50.706 C47.505,49.873 48.601,48.935 49.891,46.7 C51.186,44.457 51.456,43.031 51.683,41.777 C51.911,40.523 52.11,39.656 52.995,38.124 C53.88,36.591 54.531,35.985 55.503,35.16 C56.475,34.336 57.571,33.398 58.871,31.147 C60.166,28.904 60.43,27.486 60.658,26.232 C60.886,24.977 61.085,24.111 61.971,22.578 L61.716,22.432 L58.506,20.578" id="Fill-16" fill="#CC5547" sketch:type="MSShapeGroup"></path>
            <path d="M52.737,13.413 L63.129,19.413 C62.524,20.461 62.452,20.846 62.284,21.777 C62.028,23.2 61.67,25.141 60.03,27.981 C58.385,30.831 56.883,32.111 55.779,33.044 C55.057,33.655 54.759,33.91 54.154,34.958 C53.549,36.006 53.477,36.392 53.309,37.322 C53.053,38.745 52.695,40.686 51.05,43.535 C49.41,46.376 47.908,47.657 46.804,48.589 C46.082,49.2 45.784,49.456 45.179,50.503 L34.787,44.503 C36.427,41.663 37.937,40.387 39.033,39.449 C39.76,38.83 40.057,38.574 40.657,37.535 C41.262,36.487 41.335,36.102 41.508,35.162 C41.772,33.745 42.122,31.799 43.762,28.958 C45.402,26.118 46.912,24.842 48.008,23.904 C48.735,23.285 49.032,23.029 49.637,21.981 C50.237,20.942 50.31,20.557 50.483,19.617 C50.747,18.2 51.097,16.254 52.737,13.413" id="Fill-17" fill="#DD774A" sketch:type="MSShapeGroup"></path>
            <path d="M54.469,14.413 L61.397,18.413 C60.657,19.695 60.52,20.332 60.321,21.417 C60.074,22.765 59.768,24.435 58.298,26.981 C56.828,29.528 55.529,30.637 54.491,31.515 C53.645,32.24 53.167,32.668 52.422,33.958 C51.682,35.24 51.545,35.877 51.346,36.963 C51.094,38.318 50.788,39.989 49.318,42.535 C47.853,45.073 46.559,46.173 45.516,47.06 C44.67,47.785 44.187,48.222 43.447,49.503 L36.519,45.503 C37.984,42.966 39.291,41.862 40.326,40.97 C41.18,40.25 41.649,39.817 42.389,38.535 C43.134,37.245 43.275,36.622 43.479,35.527 C43.726,34.18 44.024,32.504 45.494,29.958 C46.959,27.421 48.266,26.317 49.309,25.429 C50.155,24.705 50.624,24.272 51.369,22.981 C52.109,21.7 52.25,21.076 52.455,19.982 C52.701,18.635 53.004,16.951 54.469,14.413" id="Fill-18" fill="#F4AF9A" sketch:type="MSShapeGroup"></path>
            <path d="M56.201,15.413 L59.665,17.413 C58.78,18.946 58.58,19.812 58.352,21.066 C58.125,22.321 57.861,23.738 56.566,25.981 C55.266,28.233 54.17,29.171 53.198,29.995 C52.225,30.819 51.575,31.425 50.69,32.958 C49.805,34.491 49.605,35.357 49.377,36.612 C49.15,37.866 48.881,39.292 47.586,41.535 C46.296,43.769 45.2,44.707 44.222,45.54 C43.25,46.364 42.6,46.971 41.715,48.503 L38.251,46.503 C39.541,44.269 40.65,43.328 41.623,42.503 C42.586,41.674 43.237,41.068 44.122,39.535 C45.011,37.994 45.211,37.128 45.443,35.887 C45.67,34.633 45.931,33.201 47.226,30.958 C48.521,28.715 49.625,27.782 50.603,26.95 C51.561,26.129 52.211,25.523 53.101,23.981 C53.986,22.449 54.186,21.582 54.418,20.342 C54.65,19.079 54.906,17.656 56.201,15.413" id="Fill-19" fill="#DB5C4B" sketch:type="MSShapeGroup"></path>
            <path d="M38.258,26.689 C38.258,33.134 33.033,38.358 26.589,38.358 C20.144,38.358 14.919,33.134 14.919,26.689 C14.919,20.244 20.144,15.02 26.589,15.02 C33.033,15.02 38.258,20.244 38.258,26.689" id="Fill-20" fill="#FFCC33" sketch:type="MSShapeGroup"></path>
            <path d="M24.426,31.295 C24.307,31.295 24.189,31.337 24.094,31.423 C23.888,31.607 23.87,31.923 24.054,32.129 C24.095,32.174 25.062,33.237 26.544,33.237 C28.005,33.237 29.1,32.2 29.146,32.156 C29.344,31.965 29.35,31.65 29.161,31.451 C29.062,31.348 28.93,31.296 28.798,31.296 C28.674,31.296 28.55,31.342 28.453,31.434 C28.446,31.442 27.595,32.237 26.544,32.237 C25.519,32.237 24.805,31.469 24.798,31.461 C24.699,31.351 24.563,31.295 24.426,31.295" id="Fill-21" fill="#ECBE34" sketch:type="MSShapeGroup"></path>
            <path d="M20.783,26.757 C20.783,27.575 20.12,28.102 19.302,28.102 C18.484,28.102 17.821,27.575 17.821,26.757 C17.821,25.939 18.484,25.276 19.302,25.276 C20.12,25.276 20.783,25.939 20.783,26.757" id="Fill-22" fill="#41443E" sketch:type="MSShapeGroup"></path>
            <path d="M21.028,29.968 C21.028,30.569 20.255,31.057 19.302,31.057 C18.349,31.057 17.576,30.569 17.576,29.968 C17.576,29.366 18.349,28.879 19.302,28.879 C20.255,28.879 21.028,29.366 21.028,29.968" id="Fill-23" fill="#F492A6" sketch:type="MSShapeGroup"></path>
            <path d="M32.306,26.757 C32.306,27.575 32.969,28.102 33.787,28.102 C34.604,28.102 35.267,27.575 35.267,26.757 C35.267,25.939 34.604,25.276 33.787,25.276 C32.969,25.276 32.306,25.939 32.306,26.757" id="Fill-24" fill="#41443E" sketch:type="MSShapeGroup"></path>
            <path d="M32.061,29.968 C32.061,30.569 32.833,31.057 33.787,31.057 C34.74,31.057 35.513,30.569 35.513,29.968 C35.513,29.366 34.74,28.879 33.787,28.879 C32.833,28.879 32.061,29.366 32.061,29.968" id="Fill-25" fill="#F492A6" sketch:type="MSShapeGroup"></path>
            <path d="M23.75,17.612 C23.228,17.612 22.656,17.718 22.087,17.941 C20.439,18.587 19.439,19.966 19.853,21.022 C20.124,21.713 20.933,22.095 21.922,22.095 C22.444,22.095 23.016,21.989 23.585,21.766 C25.232,21.12 26.232,19.741 25.819,18.685 C25.548,17.993 24.739,17.612 23.75,17.612" id="Fill-26" fill="#FBE297" sketch:type="MSShapeGroup"></path>
            <path d="M34.895,18.457 C34.936,18.51 34.976,18.563 35.016,18.617 C37.024,20.713 38.258,23.557 38.258,26.689 C38.258,33.134 33.033,38.358 26.589,38.358 C23.456,38.358 20.613,37.124 18.517,35.116 C18.463,35.076 18.409,35.036 18.356,34.996 C20.515,37.824 23.911,39.657 27.743,39.657 C34.267,39.657 39.556,34.368 39.556,27.843 C39.556,24.011 37.723,20.615 34.895,18.457" id="Fill-27" fill="#E6DEC9" sketch:type="MSShapeGroup"></path>
            <path d="M35.016,18.617 C36.459,20.576 37.322,22.989 37.322,25.609 C37.322,32.133 32.033,37.422 25.509,37.422 C22.888,37.422 20.476,36.56 18.517,35.116 C20.613,37.124 23.456,38.358 26.589,38.358 C33.033,38.358 38.258,33.134 38.258,26.689 C38.258,23.557 37.024,20.713 35.016,18.617" id="Fill-28" fill="#ECBE34" sketch:type="MSShapeGroup"></path>
        </g>
    </g>
</svg>