<?xml version="1.0" encoding="UTF-8" standalone="no"?>
<svg width="70px" height="31px" viewBox="0 0 70 31" version="1.1" xmlns="http://www.w3.org/2000/svg" xmlns:xlink="http://www.w3.org/1999/xlink" xmlns:sketch="http://www.bohemiancoding.com/sketch/ns">
    <!-- Generator: Sketch Beta 3.3.2 (12041) - http://www.bohemiancoding.com/sketch -->
    <title>happy-hotdog</title>
    <desc>Created with Sketch Beta.</desc>
    <defs></defs>
    <g id="Page-1" stroke="none" stroke-width="1" fill="none" fill-rule="evenodd" sketch:type="MSPage">
        <g id="happy-hotdog" sketch:type="MSLayerGroup">
            <path d="M65.46,16.767 L5.529,16.767 C3.022,16.767 0.989,14.735 0.989,12.227 L0.989,10.736 C0.989,8.229 3.022,6.196 5.529,6.196 L65.46,6.196 C67.967,6.196 70,8.229 70,10.736 L70,12.227 C70,14.735 67.967,16.767 65.46,16.767" id="Fill-1" fill="#DD774A" sketch:type="MSShapeGroup"></path>
            <path d="M30.097,9.67 C30.097,14.888 25.867,20.118 20.649,20.118 C15.431,20.118 11.201,14.888 11.201,9.67 C11.201,4.452 15.431,0.221 20.649,0.221 C25.867,0.221 30.097,4.452 30.097,9.67" id="Fill-2" fill="#B8D86A" sketch:type="MSShapeGroup"></path>
            <path d="M39.546,9.67 C39.546,14.888 35.315,20.118 30.097,20.118 C24.879,20.118 20.649,14.888 20.649,9.67 C20.649,4.452 24.879,0.221 30.097,0.221 C35.315,0.221 39.546,4.452 39.546,9.67" id="Fill-3" fill="#B8D86A" sketch:type="MSShapeGroup"></path>
            <path d="M48.994,9.67 C48.994,14.888 44.764,20.118 39.546,20.118 C34.327,20.118 30.097,14.888 30.097,9.67 C30.097,4.452 34.327,0.221 39.546,0.221 C44.764,0.221 48.994,4.452 48.994,9.67" id="Fill-4" fill="#B8D86A" sketch:type="MSShapeGroup"></path>
            <path d="M58.73,9.67 C58.73,14.888 54.5,20.118 49.282,20.118 C44.064,20.118 39.834,14.888 39.834,9.67 C39.834,4.452 44.064,0.221 49.282,0.221 C54.5,0.221 58.73,4.452 58.73,9.67" id="Fill-5" fill="#B8D86A" sketch:type="MSShapeGroup"></path>
            <path d="M25.518,10.67 C25.518,15.888 21.288,21.118 16.07,21.118 C10.852,21.118 6.622,15.888 6.622,10.67 C6.622,5.452 10.852,1.221 16.07,1.221 C21.288,1.221 25.518,5.452 25.518,10.67" id="Fill-6" fill="#FFCC33" sketch:type="MSShapeGroup"></path>
            <path d="M34.966,10.67 C34.966,15.888 30.736,21.118 25.518,21.118 C20.3,21.118 16.07,15.888 16.07,10.67 C16.07,5.452 20.3,1.221 25.518,1.221 C30.736,1.221 34.966,5.452 34.966,10.67" id="Fill-7" fill="#FFCC33" sketch:type="MSShapeGroup"></path>
            <path d="M44.414,10.67 C44.414,15.888 40.184,21.118 34.966,21.118 C29.748,21.118 25.518,15.888 25.518,10.67 C25.518,5.452 29.748,1.221 34.966,1.221 C40.184,1.221 44.414,5.452 44.414,10.67" id="Fill-8" fill="#FFCC33" sketch:type="MSShapeGroup"></path>
            <path d="M53.862,10.67 C53.862,15.888 49.632,21.118 44.414,21.118 C39.196,21.118 34.966,15.888 34.966,10.67 C34.966,5.452 39.196,1.221 44.414,1.221 C49.632,1.221 53.862,5.452 53.862,10.67" id="Fill-9" fill="#FFCC33" sketch:type="MSShapeGroup"></path>
            <path d="M63.31,10.67 C63.31,15.888 59.08,21.118 53.862,21.118 C48.644,21.118 44.414,15.888 44.414,10.67 C44.414,5.452 48.644,1.221 53.862,1.221 C59.08,1.221 63.31,5.452 63.31,10.67" id="Fill-10" fill="#FFCC33" sketch:type="MSShapeGroup"></path>
            <path d="M57.266,30.57 L12.666,30.57 C7.695,30.57 3.666,26.541 3.666,21.57 L3.666,12.716 C3.666,7.745 7.695,3.716 12.666,3.716 L57.266,3.716 C62.237,3.716 66.266,7.745 66.266,12.716 L66.266,21.57 C66.266,26.541 62.237,30.57 57.266,30.57" id="Fill-11" fill="#E8C274" sketch:type="MSShapeGroup"></path>
            <path d="M66.266,16.57 C66.266,21.541 62.237,25.57 57.266,25.57 L12.666,25.57 C7.695,25.57 3.666,21.541 3.666,16.57 L3.666,21.57 C3.666,26.541 7.695,30.57 12.666,30.57 L57.266,30.57 C62.237,30.57 66.266,26.541 66.266,21.57 L66.266,16.57" id="Fill-12" fill="#D7B56E" sketch:type="MSShapeGroup"></path>
            <path d="M16.038,6.414 C15.554,6.414 15.162,6.806 15.162,7.29 C15.162,7.774 15.554,8.167 16.038,8.167 C16.522,8.167 16.915,7.774 16.915,7.29 C16.915,6.806 16.522,6.414 16.038,6.414" id="Fill-13" fill="#F2DAAE" sketch:type="MSShapeGroup"></path>
            <path d="M25.502,6.414 C25.018,6.414 24.625,6.806 24.625,7.29 C24.625,7.774 25.018,8.167 25.502,8.167 C25.986,8.167 26.379,7.774 26.379,7.29 C26.379,6.806 25.986,6.414 25.502,6.414" id="Fill-14" fill="#F2DAAE" sketch:type="MSShapeGroup"></path>
            <path d="M34.966,6.414 C34.482,6.414 34.089,6.806 34.089,7.29 C34.089,7.774 34.482,8.167 34.966,8.167 C35.45,8.167 35.842,7.774 35.842,7.29 C35.842,6.806 35.45,6.414 34.966,6.414" id="Fill-15" fill="#F2DAAE" sketch:type="MSShapeGroup"></path>
            <path d="M44.43,6.414 C43.945,6.414 43.553,6.806 43.553,7.29 C43.553,7.774 43.945,8.167 44.43,8.167 C44.914,8.167 45.306,7.774 45.306,7.29 C45.306,6.806 44.914,6.414 44.43,6.414" id="Fill-16" fill="#F2DAAE" sketch:type="MSShapeGroup"></path>
            <path d="M53.893,6.414 C53.409,6.414 53.017,6.806 53.017,7.29 C53.017,7.774 53.409,8.167 53.893,8.167 C54.377,8.167 54.77,7.774 54.77,7.29 C54.77,6.806 54.377,6.414 53.893,6.414" id="Fill-17" fill="#F2DAAE" sketch:type="MSShapeGroup"></path>
            <path d="M24.891,13.049 C24.891,14.047 24.082,13.656 23.085,13.656 C22.087,13.656 21.278,14.047 21.278,13.049 C21.278,12.052 22.087,11.243 23.085,11.243 C24.082,11.243 24.891,12.052 24.891,13.049" id="Fill-18" fill="#41443E" sketch:type="MSShapeGroup"></path>
            <path d="M45.041,13.049 C45.041,14.047 45.849,13.656 46.847,13.656 C47.845,13.656 48.653,14.047 48.653,13.049 C48.653,12.052 47.845,11.243 46.847,11.243 C45.849,11.243 45.041,12.052 45.041,13.049" id="Fill-19" fill="#41443E" sketch:type="MSShapeGroup"></path>
            <path d="M39.476,18.452 C39.476,19.883 37.457,21.043 34.966,21.043 C32.475,21.043 30.456,19.883 30.456,18.452 C30.456,17.02 32.475,16.86 34.966,16.86 C37.457,16.86 39.476,17.02 39.476,18.452" id="Fill-20" fill="#736357" sketch:type="MSShapeGroup"></path>
            <path d="M23.085,15.452 C21.74,15.452 20.649,16.082 20.649,16.86 C20.649,17.638 21.74,18.269 23.085,18.269 C24.429,18.269 25.52,17.638 25.52,16.86 C25.52,16.082 24.429,15.452 23.085,15.452" id="Fill-21" fill="#ECB483" sketch:type="MSShapeGroup"></path>
            <path d="M46.847,15.452 C45.502,15.452 44.412,16.082 44.412,16.86 C44.412,17.638 45.502,18.269 46.847,18.269 C48.192,18.269 49.282,17.638 49.282,16.86 C49.282,16.082 48.192,15.452 46.847,15.452" id="Fill-22" fill="#ECB483" sketch:type="MSShapeGroup"></path>
        </g>
    </g>
</svg>