<?xml version="1.0" encoding="UTF-8" standalone="no"?>
<svg width="41px" height="62px" viewBox="0 0 41 62" version="1.1" xmlns="http://www.w3.org/2000/svg" xmlns:xlink="http://www.w3.org/1999/xlink" xmlns:sketch="http://www.bohemiancoding.com/sketch/ns">
    <!-- Generator: Sketch Beta 3.3.2 (12041) - http://www.bohemiancoding.com/sketch -->
    <title>happy-takeaway-coffee</title>
    <desc>Created with Sketch Beta.</desc>
    <defs></defs>
    <g id="Page-1" stroke="none" stroke-width="1" fill="none" fill-rule="evenodd" sketch:type="MSPage">
        <g id="happy-takeaway-coffee" sketch:type="MSLayerGroup">
            <g id="Page-1" sketch:type="MSShapeGroup">
                <path d="M34.667,61.172 L6.847,61.172 C5.705,61.172 4.763,60.276 4.707,59.135 L2.664,11.164 L38.851,11.164 L36.808,59.135 C36.752,60.276 35.81,61.172 34.667,61.172" id="Fill-1" fill="#ECEDEC"></path>
                <path d="M0.812,8.823 L40.703,8.823 L40.703,13.107 L0.812,13.107 L0.812,8.823 Z" id="Fill-2" fill="#F8F8F8"></path>
                <path d="M39.633,9.175 L1.882,9.175 L3.008,0.893 L38.507,0.893 L39.633,9.175" id="Fill-3" fill="#F8F8F8"></path>
                <path d="M1.96,8.823 L39.555,8.823 L39.141,6.961 L2.374,6.961 L1.96,8.823" id="Fill-4" fill="#ECEDEC"></path>
                <path d="M6.838,61.172 L6.847,61.172 L6.838,61.172 M36.808,59.135 C36.754,60.236 35.875,61.109 34.787,61.169 C35.875,61.109 36.754,60.236 36.808,59.135 M3.906,40.329 L3.906,40.329 L4.594,56.483 L3.906,40.329 M38.768,13.107 L38.768,13.107 L38.316,23.714 L38.768,13.107" id="Fill-5" fill="#F6F6F6"></path>
                <path d="M38.768,13.107 L2.746,13.107 L2.883,16.322 L28.941,16.322 L28.428,28.364 C28.595,28.323 28.777,28.301 28.967,28.301 C29.784,28.301 30.447,28.718 30.447,29.234 C30.447,29.75 29.784,30.168 28.967,30.168 C28.749,30.168 28.541,30.138 28.355,30.084 L27.918,40.329 L3.906,40.329 L4.594,56.483 L27.231,56.483 L27.163,58.063 C27.107,59.204 26.165,60.101 25.022,60.101 L5.002,60.101 C5.185,60.416 5.446,60.68 5.757,60.867 L5.802,60.891 C5.93,60.964 6.069,61.021 6.213,61.067 L6.331,61.102 C6.494,61.143 6.662,61.172 6.838,61.172 L6.847,61.172 L34.667,61.172 C34.707,61.172 34.747,61.171 34.787,61.169 C35.875,61.109 36.754,60.236 36.808,59.135 L38.768,13.107" id="Fill-6" fill="#E3E4E2"></path>
                <path d="M38.851,11.164 L29.161,11.164 L29.123,12.038 L2.701,12.038 L2.746,13.107 L38.768,13.107 L38.851,11.164" id="Fill-7" fill="#EEEEEE"></path>
                <path d="M37.24,55.412 L37.928,39.258 L3.586,39.258 L4.274,55.412 L37.24,55.412" id="Fill-8" fill="#E8C274"></path>
                <path d="M25.013,47.547 C25.013,49.898 23.108,51.803 20.757,51.803 C18.407,51.803 16.501,49.898 16.501,47.547 C16.501,45.197 18.407,43.292 20.757,43.292 C23.108,43.292 25.013,45.197 25.013,47.547" id="Fill-9" fill="#ECEDEC"></path>
                <path d="M14.488,26.534 C14.488,27.585 13.636,26.977 12.585,26.977 C11.534,26.977 10.682,27.585 10.682,26.534 C10.682,25.483 11.534,24.63 12.585,24.63 C13.636,24.63 14.488,25.483 14.488,26.534" id="Fill-10" fill="#41443E"></path>
                <path d="M12.585,28.301 C11.768,28.301 11.105,28.718 11.105,29.234 C11.105,29.75 11.768,30.168 12.585,30.168 C13.402,30.168 14.065,29.75 14.065,29.234 C14.065,28.718 13.402,28.301 12.585,28.301" id="Fill-11" fill="#EEDBDD"></path>
                <path d="M27.064,26.534 C27.064,27.585 27.916,26.977 28.967,26.977 C30.018,26.977 30.87,27.585 30.87,26.534 C30.87,25.483 30.018,24.63 28.967,24.63 C27.916,24.63 27.064,25.483 27.064,26.534" id="Fill-12" fill="#41443E"></path>
                <path d="M28.428,28.364 C27.877,28.5 27.487,28.838 27.487,29.234 C27.487,29.612 27.843,29.937 28.355,30.084 L28.428,28.364" id="Fill-13" fill="#EEDBDD"></path>
                <path d="M28.967,28.301 C28.777,28.301 28.595,28.323 28.428,28.364 L28.355,30.084 C28.541,30.138 28.749,30.168 28.967,30.168 C29.784,30.168 30.447,29.75 30.447,29.234 C30.447,28.718 29.784,28.301 28.967,28.301" id="Fill-14" fill="#E6D4D6"></path>
                <path d="M23.106,32.013 C23.106,32.291 22.063,33.797 20.776,33.797 C19.489,33.797 18.446,32.291 18.446,32.013 C18.446,31.736 19.489,30.942 20.776,30.942 C22.063,30.942 23.106,31.736 23.106,32.013" id="Fill-15" fill="#F492A6"></path>
            </g>
        </g>
    </g>
</svg>