<?xml version="1.0" encoding="UTF-8" standalone="no"?>
<svg width="54px" height="54px" viewBox="0 0 54 54" version="1.1" xmlns="http://www.w3.org/2000/svg" xmlns:xlink="http://www.w3.org/1999/xlink" xmlns:sketch="http://www.bohemiancoding.com/sketch/ns">
    <!-- Generator: Sketch Beta 3.3.2 (12041) - http://www.bohemiancoding.com/sketch -->
    <title>happy-baggle</title>
    <desc>Created with Sketch Beta.</desc>
    <defs></defs>
    <g id="Page-1" stroke="none" stroke-width="1" fill="none" fill-rule="evenodd" sketch:type="MSPage">
        <g id="happy-baggle" sketch:type="MSLayerGroup">
            <path d="M27.41,0.466 C12.794,0.466 0.946,12.315 0.946,26.93 C0.946,41.545 12.794,53.393 27.41,53.393 C42.025,53.393 53.873,41.545 53.873,26.93 C53.873,12.315 42.025,0.466 27.41,0.466 M27.41,38.347 C21.105,38.347 15.993,33.235 15.993,26.93 C15.993,20.625 21.105,15.513 27.41,15.513 C33.715,15.513 38.826,20.625 38.826,26.93 C38.826,33.235 33.715,38.347 27.41,38.347" id="Fill-1" fill="#E8C274" sketch:type="MSShapeGroup"></path>
            <path d="M26.807,15.529 C21.636,15.798 17.376,19.507 16.272,24.411 C16.273,24.417 16.275,24.424 16.276,24.43 C17.375,19.518 21.631,15.799 26.807,15.529 M28.012,15.529 C33.188,15.798 37.445,19.518 38.543,24.43 C38.545,24.424 38.546,24.417 38.548,24.411 C37.443,19.507 33.183,15.798 28.012,15.529 M26.837,15.527 C26.828,15.528 26.818,15.528 26.808,15.529 C26.818,15.528 26.828,15.528 26.837,15.527 M27.982,15.527 C27.992,15.528 28.002,15.528 28.012,15.529 C28.002,15.528 27.992,15.528 27.982,15.527 M26.87,15.526 C26.86,15.526 26.85,15.527 26.841,15.527 C26.85,15.527 26.86,15.526 26.87,15.526 M27.95,15.526 C27.96,15.526 27.969,15.527 27.979,15.527 C27.969,15.527 27.96,15.526 27.95,15.526 M26.988,15.521 C26.95,15.522 26.911,15.524 26.873,15.526 C26.911,15.524 26.95,15.522 26.988,15.521 M27.831,15.521 C27.87,15.522 27.909,15.524 27.947,15.526 C27.909,15.524 27.87,15.522 27.831,15.521 M27.02,15.52 L26.999,15.52 L27.02,15.52 M27.8,15.52 L27.821,15.52 L27.8,15.52 M27.052,15.519 L27.033,15.519 L27.052,15.519 M27.767,15.519 L27.787,15.519 L27.767,15.519 M27.086,15.518 L27.068,15.518 L27.086,15.518 M27.733,15.518 L27.752,15.518 L27.733,15.518 M27.12,15.517 L27.104,15.517 L27.12,15.517 M27.7,15.517 L27.716,15.517 L27.7,15.517 M27.154,15.516 L27.14,15.516 L27.154,15.516 M27.665,15.516 L27.68,15.516 L27.665,15.516 M27.198,15.515 L27.188,15.515 L27.198,15.515 M27.622,15.515 L27.632,15.515 L27.622,15.515 M27.236,15.515 L27.222,15.515 L27.236,15.515 M27.584,15.515 L27.598,15.515 L27.584,15.515 M27.271,15.514 L27.257,15.514 L27.271,15.514 M27.548,15.514 L27.563,15.514 L27.548,15.514 M27.306,15.514 L27.291,15.514 L27.306,15.514 M27.513,15.514 L27.528,15.514 L27.513,15.514 M27.341,15.513 L27.327,15.513 L27.341,15.513 M27.479,15.513 L27.493,15.513 L27.479,15.513 M27.375,15.513 L27.364,15.513 L27.375,15.513 M27.445,15.513 L27.456,15.513 L27.445,15.513" id="Fill-2" fill="#ECECEC" sketch:type="MSShapeGroup"></path>
            <path d="M27.41,12.461 C27.015,12.649 26.307,13.179 25.818,13.544 C24.831,14.281 23.713,15.116 22.34,15.685 C20.931,16.269 19.521,16.482 18.278,16.671 C17.953,16.72 17.549,16.781 17.183,16.849 C16.421,18.379 15.993,20.105 15.993,21.93 C15.993,22.783 16.094,23.611 16.272,24.411 C17.376,19.507 21.636,15.798 26.807,15.529 L26.808,15.529 C26.818,15.528 26.828,15.528 26.837,15.527 L26.841,15.527 C26.85,15.527 26.86,15.526 26.87,15.526 L26.873,15.526 C26.911,15.524 26.95,15.522 26.988,15.521 C26.992,15.521 26.995,15.521 26.999,15.52 L27.02,15.52 C27.024,15.52 27.029,15.519 27.033,15.519 L27.052,15.519 C27.057,15.519 27.063,15.518 27.068,15.518 L27.086,15.518 C27.092,15.518 27.098,15.517 27.104,15.517 L27.12,15.517 C27.126,15.517 27.133,15.517 27.14,15.516 L27.154,15.516 C27.166,15.516 27.176,15.516 27.188,15.515 L27.198,15.515 L27.222,15.515 L27.236,15.515 C27.243,15.514 27.25,15.514 27.257,15.514 L27.271,15.514 L27.291,15.514 L27.306,15.514 C27.313,15.514 27.32,15.514 27.327,15.513 L27.341,15.513 L27.364,15.513 L27.375,15.513 L27.41,15.513 L27.445,15.513 L27.456,15.513 L27.479,15.513 L27.493,15.513 C27.5,15.514 27.506,15.514 27.513,15.514 L27.528,15.514 L27.548,15.514 L27.563,15.514 C27.57,15.514 27.577,15.514 27.584,15.515 L27.598,15.515 L27.622,15.515 L27.632,15.515 C27.643,15.516 27.654,15.516 27.665,15.516 L27.68,15.516 C27.687,15.517 27.693,15.517 27.7,15.517 L27.716,15.517 C27.722,15.517 27.727,15.518 27.733,15.518 L27.752,15.518 C27.757,15.518 27.762,15.519 27.767,15.519 L27.787,15.519 C27.791,15.519 27.795,15.52 27.8,15.52 L27.821,15.52 C27.824,15.521 27.828,15.521 27.831,15.521 C27.87,15.522 27.909,15.524 27.947,15.526 L27.95,15.526 C27.96,15.526 27.969,15.527 27.979,15.527 L27.982,15.527 C27.992,15.528 28.002,15.528 28.012,15.529 C33.183,15.798 37.443,19.507 38.548,24.411 C38.725,23.611 38.826,22.783 38.826,21.93 C38.826,20.105 38.398,18.379 37.637,16.849 C37.271,16.781 36.867,16.72 36.542,16.671 C35.298,16.482 33.889,16.269 32.479,15.685 C31.107,15.116 29.988,14.281 29.002,13.544 C28.513,13.179 27.804,12.649 27.41,12.461" id="Fill-3" fill="#D7B56E" sketch:type="MSShapeGroup"></path>
            <path d="M17.814,15.742 C17.334,15.818 16.808,15.91 16.488,16.008 C16.357,16.435 16.236,17.236 16.151,17.798 C15.963,19.041 15.75,20.451 15.165,21.86 C14.596,23.233 13.76,24.352 13.024,25.338 C12.658,25.827 12.13,26.535 11.94,26.93 C12.006,27.066 12.112,27.24 12.238,27.43 C12.476,27.072 12.785,26.658 13.024,26.338 C13.76,25.352 14.596,24.233 15.165,22.86 C15.75,21.451 15.963,20.041 16.151,18.798 C16.236,18.236 16.357,17.435 16.488,17.008 C16.669,16.953 16.916,16.899 17.183,16.849 C17.373,16.468 17.584,16.098 17.814,15.742 M37.006,15.742 C37.236,16.098 37.447,16.468 37.637,16.849 C37.904,16.899 38.151,16.953 38.331,17.008 C38.462,17.435 38.584,18.235 38.669,18.797 C38.857,20.041 39.07,21.451 39.654,22.86 C40.224,24.233 41.059,25.352 41.796,26.338 C42.035,26.658 42.344,27.072 42.582,27.43 C42.708,27.241 42.814,27.066 42.88,26.93 C42.69,26.535 42.161,25.827 41.796,25.338 C41.059,24.352 40.224,23.233 39.654,21.86 C39.07,20.451 38.857,19.041 38.669,17.797 C38.584,17.235 38.462,16.435 38.331,16.008 C38.012,15.91 37.486,15.818 37.006,15.742" id="Fill-4" fill="#D7B56E" sketch:type="MSShapeGroup"></path>
            <path d="M27.41,11.461 C27.015,11.649 26.307,12.179 25.818,12.544 C24.831,13.281 23.713,14.116 22.34,14.685 C20.931,15.27 19.521,15.482 18.278,15.671 C18.135,15.692 17.977,15.716 17.814,15.742 C17.584,16.098 17.373,16.468 17.183,16.849 C17.549,16.781 17.953,16.72 18.278,16.671 C19.521,16.482 20.931,16.269 22.34,15.685 C23.713,15.116 24.831,14.281 25.818,13.544 C26.307,13.179 27.015,12.649 27.41,12.461 C27.804,12.649 28.513,13.179 29.002,13.544 C29.988,14.281 31.107,15.116 32.479,15.685 C33.889,16.269 35.298,16.482 36.542,16.671 C36.867,16.72 37.271,16.781 37.637,16.849 C37.447,16.468 37.236,16.098 37.006,15.742 C36.843,15.716 36.685,15.692 36.542,15.671 C35.298,15.482 33.889,15.27 32.479,14.685 C31.107,14.116 29.988,13.281 29.002,12.544 C28.513,12.179 27.804,11.649 27.41,11.461" id="Fill-5" fill="#C8A969" sketch:type="MSShapeGroup"></path>
            <path d="M2.911,27.43 C2.902,27.594 2.896,27.761 2.896,27.93 C2.896,31.004 4.583,33.261 5.814,34.909 C6.214,35.445 6.713,36.112 6.852,36.446 C7.015,36.841 7.141,37.674 7.253,38.408 C7.292,38.668 7.333,38.94 7.379,39.221 C7.461,39.316 7.544,39.41 7.627,39.504 C7.457,38.76 7.349,38.047 7.253,37.408 C7.141,36.674 7.015,35.841 6.852,35.446 C6.713,35.112 6.214,34.445 5.814,33.909 C4.65,32.351 3.081,30.25 2.911,27.43 M51.908,27.43 C51.739,30.25 50.169,32.351 49.006,33.908 C48.605,34.445 48.107,35.112 47.968,35.447 C47.804,35.842 47.678,36.675 47.567,37.409 C47.471,38.047 47.363,38.76 47.193,39.504 C47.276,39.41 47.358,39.316 47.44,39.221 C47.487,38.94 47.528,38.668 47.567,38.409 C47.678,37.675 47.804,36.842 47.968,36.447 C48.107,36.112 48.605,35.445 49.006,34.908 C50.237,33.261 51.923,31.004 51.923,27.93 C51.923,27.761 51.918,27.594 51.908,27.43" id="Fill-6" fill="#D7B56E" sketch:type="MSShapeGroup"></path>
            <path d="M27.41,51.443 C24.336,51.443 22.079,49.757 20.431,48.526 C19.894,48.125 19.227,47.627 18.892,47.487 C18.498,47.324 17.665,47.198 16.931,47.087 C14.926,46.784 12.181,46.368 10.076,44.263 C7.971,42.158 7.556,39.413 7.253,37.408 C7.141,36.674 7.015,35.841 6.852,35.446 C6.713,35.112 6.214,34.445 5.814,33.909 C4.583,32.261 2.896,30.004 2.896,26.93 C2.896,23.856 4.582,21.6 5.813,19.952 C6.214,19.415 6.713,18.748 6.852,18.413 C7.015,18.019 7.141,17.185 7.253,16.451 C7.556,14.447 7.971,11.702 10.076,9.597 C12.181,7.491 14.927,7.075 16.931,6.772 C17.666,6.661 18.499,6.535 18.893,6.372 C19.228,6.232 19.896,5.734 20.432,5.334 C22.08,4.102 24.337,2.417 27.41,2.417 C30.483,2.417 32.74,4.102 34.387,5.333 C34.924,5.734 35.591,6.232 35.926,6.371 C36.322,6.535 37.154,6.661 37.889,6.772 C39.893,7.075 42.638,7.491 44.744,9.597 C46.849,11.702 47.264,14.447 47.567,16.451 C47.678,17.185 47.804,18.019 47.968,18.413 C48.107,18.748 48.605,19.415 49.006,19.952 C50.237,21.6 51.923,23.856 51.923,26.93 C51.923,30.004 50.237,32.261 49.006,33.908 C48.605,34.445 48.107,35.112 47.968,35.447 C47.804,35.842 47.678,36.675 47.567,37.409 C47.264,39.413 46.849,42.158 44.743,44.264 C42.638,46.369 39.893,46.784 37.889,47.087 C37.154,47.198 36.321,47.324 35.927,47.487 C35.593,47.626 34.925,48.125 34.389,48.525 C32.741,49.757 30.484,51.443 27.41,51.443 M16.488,37.852 C16.916,37.982 17.716,38.103 18.277,38.188 C19.521,38.377 20.931,38.59 22.34,39.175 C23.714,39.744 24.831,40.579 25.818,41.315 C26.307,41.682 27.015,42.211 27.41,42.399 C27.804,42.211 28.513,41.682 29.003,41.315 C29.988,40.579 31.106,39.744 32.478,39.175 C33.889,38.59 35.299,38.376 36.543,38.188 C37.104,38.103 37.903,37.982 38.331,37.852 C38.462,37.424 38.584,36.624 38.669,36.063 C38.857,34.819 39.07,33.409 39.654,32 C40.224,30.627 41.059,29.509 41.795,28.522 C42.161,28.033 42.691,27.325 42.88,26.93 C42.69,26.535 42.161,25.827 41.796,25.338 C41.059,24.352 40.224,23.233 39.654,21.86 C39.07,20.451 38.857,19.041 38.669,17.797 C38.584,17.235 38.462,16.435 38.331,16.008 C37.903,15.877 37.104,15.756 36.542,15.671 C35.298,15.482 33.889,15.27 32.479,14.685 C31.107,14.116 29.988,13.281 29.002,12.544 C28.513,12.179 27.804,11.649 27.41,11.461 C27.015,11.649 26.307,12.179 25.818,12.544 C24.831,13.281 23.713,14.116 22.34,14.685 C20.931,15.27 19.521,15.482 18.278,15.671 C17.716,15.756 16.916,15.877 16.488,16.008 C16.357,16.435 16.236,17.236 16.151,17.798 C15.963,19.041 15.75,20.451 15.165,21.86 C14.596,23.233 13.76,24.352 13.024,25.338 C12.658,25.827 12.13,26.535 11.94,26.93 C12.13,27.325 12.659,28.033 13.024,28.522 C13.761,29.509 14.596,30.626 15.165,31.998 C15.75,33.408 15.963,34.818 16.151,36.063 C16.236,36.624 16.357,37.424 16.488,37.852" id="Fill-7" fill="#FFFFFF" sketch:type="MSShapeGroup"></path>
            <path d="M53.752,24.43 C53.225,30.058 50.935,35.175 47.44,39.221 C47.128,41.112 46.577,43.431 44.743,45.264 C42.638,47.369 39.893,47.784 37.889,48.087 C37.154,48.198 36.321,48.324 35.927,48.487 C35.593,48.626 34.925,49.125 34.389,49.525 C32.741,50.757 30.484,52.443 27.41,52.443 C24.336,52.443 22.079,50.757 20.431,49.526 C19.894,49.125 19.227,48.627 18.892,48.487 C18.498,48.324 17.665,48.198 16.931,48.087 C14.926,47.784 12.181,47.368 10.076,45.263 C8.243,43.431 7.692,41.113 7.379,39.221 C3.885,35.175 1.595,30.058 1.067,24.43 C0.99,25.253 0.946,26.086 0.946,26.93 C0.946,41.545 12.794,53.393 27.41,53.393 C42.025,53.393 53.873,41.545 53.873,26.93 C53.873,26.086 53.829,25.253 53.752,24.43" id="Fill-8" fill="#D7B56E" sketch:type="MSShapeGroup"></path>
            <path d="M47.44,39.221 C47.358,39.316 47.276,39.41 47.193,39.504 C46.828,41.096 46.178,42.828 44.743,44.264 C42.638,46.369 39.893,46.784 37.889,47.087 C37.154,47.198 36.321,47.324 35.927,47.487 C35.593,47.626 34.925,48.125 34.389,48.525 C32.741,49.757 30.484,51.443 27.41,51.443 C24.336,51.443 22.079,49.757 20.431,48.526 C19.894,48.125 19.227,47.627 18.892,47.487 C18.498,47.324 17.665,47.198 16.931,47.087 C14.926,46.784 12.181,46.368 10.076,44.263 C8.641,42.828 7.991,41.096 7.627,39.504 C7.544,39.41 7.461,39.316 7.379,39.221 C7.692,41.113 8.243,43.431 10.076,45.263 C12.181,47.368 14.926,47.784 16.931,48.087 C17.665,48.198 18.498,48.324 18.892,48.487 C19.227,48.627 19.894,49.125 20.431,49.526 C22.079,50.757 24.336,52.443 27.41,52.443 C30.484,52.443 32.741,50.757 34.389,49.525 C34.925,49.125 35.593,48.626 35.927,48.487 C36.321,48.324 37.154,48.198 37.889,48.087 C39.893,47.784 42.638,47.369 44.743,45.264 C46.577,43.431 47.128,41.112 47.44,39.221" id="Fill-9" fill="#C8A969" sketch:type="MSShapeGroup"></path>
            <path d="M47.193,39.504 C42.346,44.957 35.28,48.393 27.41,48.393 C19.54,48.393 12.473,44.958 7.627,39.504 C7.991,41.096 8.641,42.828 10.076,44.263 C12.181,46.368 14.926,46.784 16.931,47.087 C17.665,47.198 18.498,47.324 18.892,47.487 C19.227,47.627 19.894,48.125 20.431,48.526 C22.079,49.757 24.336,51.443 27.41,51.443 C30.484,51.443 32.741,49.757 34.389,48.525 C34.925,48.125 35.593,47.626 35.927,47.487 C36.321,47.324 37.154,47.198 37.889,47.087 C39.893,46.784 42.638,46.369 44.743,44.264 C46.178,42.828 46.828,41.096 47.193,39.504" id="Fill-10" fill="#ECECEC" sketch:type="MSShapeGroup"></path>
            <path d="M14.864,12.723 C14.864,13.774 14.012,14.167 12.961,14.167 C11.91,14.167 11.058,13.774 11.058,12.723 C11.058,11.672 11.91,10.82 12.961,10.82 C14.012,10.82 14.864,11.672 14.864,12.723" id="Fill-11" fill="#41443E" sketch:type="MSShapeGroup"></path>
            <path d="M14.441,16.424 C14.441,16.939 13.778,17.357 12.961,17.357 C12.144,17.357 11.481,16.939 11.481,16.424 C11.481,15.908 12.144,15.49 12.961,15.49 C13.778,15.49 14.441,15.908 14.441,16.424" id="Fill-12" fill="#F9AFC0" sketch:type="MSShapeGroup"></path>
            <path d="M39.955,12.723 C39.955,13.774 40.807,14.167 41.858,14.167 C42.909,14.167 43.761,13.774 43.761,12.723 C43.761,11.672 42.909,10.82 41.858,10.82 C40.807,10.82 39.955,11.672 39.955,12.723" id="Fill-13" fill="#41443E" sketch:type="MSShapeGroup"></path>
            <path d="M40.379,16.424 C40.379,16.939 41.041,17.357 41.858,17.357 C42.676,17.357 43.338,16.939 43.338,16.424 C43.338,15.908 42.676,15.49 41.858,15.49 C41.041,15.49 40.379,15.908 40.379,16.424" id="Fill-14" fill="#F9AFC0" sketch:type="MSShapeGroup"></path>
            <path d="M8.922,26.93 C8.922,27.652 8.337,28.237 7.615,28.237 C6.893,28.237 6.308,27.652 6.308,26.93 C6.308,26.208 6.893,25.623 7.615,25.623 C8.337,25.623 8.922,26.208 8.922,26.93" id="Fill-15" fill="#EF4B3A" sketch:type="MSShapeGroup"></path>
            <path d="M13.885,40.19 C14.395,40.7 14.395,41.528 13.885,42.039 C13.374,42.549 12.546,42.549 12.036,42.039 C11.525,41.528 11.525,40.7 12.036,40.19 C12.546,39.679 13.374,39.679 13.885,40.19" id="Fill-16" fill="#EF4B3A" sketch:type="MSShapeGroup"></path>
            <path d="M40.935,40.19 C40.424,40.7 40.424,41.528 40.935,42.039 C41.445,42.549 42.273,42.549 42.784,42.039 C43.294,41.528 43.294,40.7 42.784,40.19 C42.273,39.679 41.445,39.679 40.935,40.19" id="Fill-17" fill="#EF4B3A" sketch:type="MSShapeGroup"></path>
            <path d="M27.487,46.057 C28.209,46.057 28.794,46.642 28.794,47.364 C28.794,48.086 28.209,48.672 27.487,48.672 C26.765,48.672 26.18,48.086 26.18,47.364 C26.18,46.642 26.765,46.057 27.487,46.057" id="Fill-18" fill="#EF4B3A" sketch:type="MSShapeGroup"></path>
            <path d="M45.897,26.93 C45.897,26.208 46.482,25.623 47.204,25.623 C47.926,25.623 48.512,26.208 48.512,26.93 C48.512,27.652 47.926,28.237 47.204,28.237 C46.482,28.237 45.897,27.652 45.897,26.93" id="Fill-19" fill="#EF4B3A" sketch:type="MSShapeGroup"></path>
            <path d="M27.41,9.083 C26.688,9.083 26.102,8.497 26.102,7.775 C26.102,7.053 26.688,6.468 27.41,6.468 C28.132,6.468 28.717,7.053 28.717,7.775 C28.717,8.497 28.132,9.083 27.41,9.083" id="Fill-20" fill="#EF4B3A" sketch:type="MSShapeGroup"></path>
        </g>
    </g>
</svg>