<?xml version="1.0" encoding="UTF-8" standalone="no"?>
<svg width="35px" height="62px" viewBox="0 0 35 62" version="1.1" xmlns="http://www.w3.org/2000/svg" xmlns:xlink="http://www.w3.org/1999/xlink" xmlns:sketch="http://www.bohemiancoding.com/sketch/ns">
    <!-- Generator: Sketch Beta 3.3.2 (12041) - http://www.bohemiancoding.com/sketch -->
    <title>happy-soft-icecream</title>
    <desc>Created with Sketch Beta.</desc>
    <defs></defs>
    <g id="Page-1" stroke="none" stroke-width="1" fill="none" fill-rule="evenodd" sketch:type="MSPage">
        <g id="happy-soft-icecream" sketch:type="MSLayerGroup">
            <path d="M2.297,26.258 C-5.776,8.276 23.024,10.993 21.825,0.037 C38.125,9.105 34.578,23.404 31.961,26.258 C29.344,29.111 3.127,28.106 2.297,26.258" id="Fill-1" fill="#F492A6" sketch:type="MSShapeGroup"></path>
            <path d="M9.352,27.68 C9.405,27.798 9.46,27.919 9.517,28.04 C9.954,28.972 11.12,29.864 12.626,30.604 L24.862,30.604 C25.023,29.927 24.857,29.053 24.26,27.953 C24.248,27.931 24.236,27.908 24.224,27.886 C22.48,27.992 20.57,28.041 18.629,28.041 C15.425,28.041 12.134,27.908 9.352,27.68" id="Fill-2" fill="#FCD7DF" sketch:type="MSShapeGroup"></path>
            <path d="M21.825,0.037 C27.605,19.594 3.011,13.402 9.352,27.68 C12.134,27.908 15.425,28.041 18.629,28.041 C20.57,28.041 22.48,27.992 24.224,27.886 C20.166,20.24 34.323,18.102 21.825,0.037" id="Fill-3" fill="#F8A1B3" sketch:type="MSShapeGroup"></path>
            <path d="M24.948,61.966 L9.429,61.966 C8.921,61.966 8.494,61.586 8.435,61.082 L6.422,43.786 C6.353,43.191 6.817,42.67 7.415,42.67 L26.962,42.67 C27.56,42.67 28.024,43.191 27.955,43.786 L25.941,61.082 C25.882,61.586 25.455,61.966 24.948,61.966" id="Fill-4" fill="#E8C274" sketch:type="MSShapeGroup"></path>
            <path d="M6.867,47.607 L7.112,49.71 L6.867,47.607" id="Fill-5" fill="#ECECEC" sketch:type="MSShapeGroup"></path>
            <path d="M6.867,47.607 L7.112,49.71 C7.44,49.833 7.794,49.9 8.161,49.9 L18.847,49.9 L19.008,47.9 L8.161,47.9 C7.7,47.9 7.261,47.796 6.867,47.607" id="Fill-6" fill="#D7B56E" sketch:type="MSShapeGroup"></path>
            <path d="M26.215,47.9 L8.161,47.9 C6.702,47.9 5.455,46.85 5.205,45.413 L2.637,30.604 L31.74,30.604 L29.171,45.413 C28.922,46.85 27.674,47.9 26.215,47.9" id="Fill-7" fill="#E8C274" sketch:type="MSShapeGroup"></path>
            <path d="M29.154,45.504 L29.154,45.505 L29.154,45.504 M29.158,45.484 C29.157,45.487 29.157,45.49 29.156,45.493 C29.157,45.49 29.157,45.487 29.158,45.484 M29.162,45.466 C29.161,45.469 29.16,45.473 29.16,45.476 C29.16,45.473 29.161,45.469 29.162,45.466 M29.165,45.447 C29.164,45.452 29.163,45.457 29.162,45.462 C29.163,45.457 29.164,45.452 29.165,45.447 M29.168,45.431 C29.167,45.436 29.166,45.441 29.165,45.446 C29.166,45.441 29.167,45.436 29.168,45.431 M29.171,45.413 C29.17,45.418 29.169,45.423 29.169,45.428 C29.169,45.423 29.17,45.418 29.171,45.413" id="Fill-8" fill="#ECECEC" sketch:type="MSShapeGroup"></path>
            <path d="M27.51,47.607 L27.51,47.607 L27.265,49.71 C26.937,49.833 26.583,49.9 26.215,49.9 L18.847,49.9 L17.877,61.966 L24.948,61.966 C25.455,61.966 25.882,61.586 25.941,61.082 L27.51,47.607" id="Fill-9" fill="#D7B56E" sketch:type="MSShapeGroup"></path>
            <path d="M27.51,47.607 C27.116,47.795 26.676,47.9 26.215,47.9 L19.008,47.9 L18.847,49.9 L26.215,49.9 C26.583,49.9 26.937,49.833 27.265,49.71 L27.51,47.607" id="Fill-10" fill="#C8A969" sketch:type="MSShapeGroup"></path>
            <path d="M31.74,30.604 L31.74,30.604 L31.136,34.083 L22.494,34.083 L20.955,47.9 L19.008,47.9 L26.215,47.9 C26.676,47.9 27.116,47.795 27.51,47.607 L27.511,47.594 C28.334,47.197 28.961,46.443 29.154,45.505 L29.154,45.504 C29.155,45.5 29.155,45.497 29.156,45.493 C29.157,45.49 29.157,45.487 29.158,45.484 C29.159,45.481 29.159,45.479 29.16,45.476 C29.16,45.473 29.161,45.469 29.162,45.466 L29.162,45.462 C29.163,45.457 29.164,45.452 29.165,45.447 L29.165,45.446 C29.166,45.441 29.167,45.436 29.168,45.431 C29.168,45.43 29.168,45.429 29.169,45.428 C29.169,45.423 29.17,45.418 29.171,45.413 L31.74,30.604" id="Fill-11" fill="#D7B56E" sketch:type="MSShapeGroup"></path>
            <path d="M26.106,30.604 L2.637,30.604 L3.24,34.083 L22.494,34.083 L22.776,31.552 L26.106,30.604" id="Fill-12" fill="#D7B56E" sketch:type="MSShapeGroup"></path>
            <path d="M31.74,30.604 L26.106,30.604 L22.776,31.552 L22.494,34.083 L31.136,34.083 L31.74,30.604" id="Fill-13" fill="#C8A969" sketch:type="MSShapeGroup"></path>
            <path d="M30.895,31.552 L3.482,31.552 C1.825,31.552 0.482,30.209 0.482,28.552 L0.482,28.395 C0.482,26.738 1.825,25.395 3.482,25.395 L30.895,25.395 C32.552,25.395 33.895,26.738 33.895,28.395 L33.895,28.552 C33.895,30.209 32.552,31.552 30.895,31.552" id="Fill-14" fill="#E8C274" sketch:type="MSShapeGroup"></path>
            <path d="M13.29,39.572 C13.29,40.624 12.437,40.016 11.386,40.016 C10.335,40.016 9.483,40.624 9.483,39.572 C9.483,38.521 10.335,37.669 11.386,37.669 C12.437,37.669 13.29,38.521 13.29,39.572" id="Fill-15" fill="#41443E" sketch:type="MSShapeGroup"></path>
            <path d="M12.866,42.273 C12.866,42.789 12.204,43.206 11.386,43.206 C10.569,43.206 9.907,42.789 9.907,42.273 C9.907,41.757 10.569,41.339 11.386,41.339 C12.204,41.339 12.866,41.757 12.866,42.273" id="Fill-16" fill="#F9AFC0" sketch:type="MSShapeGroup"></path>
            <path d="M21.865,39.572 C21.865,40.624 22.717,40.016 23.768,40.016 C24.819,40.016 25.671,40.624 25.671,39.572 C25.671,38.521 24.819,37.669 23.768,37.669 C22.717,37.669 21.865,38.521 21.865,39.572" id="Fill-17" fill="#41443E" sketch:type="MSShapeGroup"></path>
            <path d="M22.289,42.273 C22.289,42.789 22.951,43.206 23.768,43.206 C24.586,43.206 25.248,42.789 25.248,42.273 C25.248,41.757 24.586,41.339 23.768,41.339 C22.951,41.339 22.289,41.757 22.289,42.273" id="Fill-18" fill="#F9AFC0" sketch:type="MSShapeGroup"></path>
            <path d="M17.577,43.278 C16.23,43.278 15.138,43.401 15.138,43.729 C15.138,44.056 16.23,45.836 17.577,45.836 C18.925,45.836 20.017,44.056 20.017,43.729 C20.017,43.401 18.925,43.278 17.577,43.278" id="Fill-19" fill="#D7B56E" sketch:type="MSShapeGroup"></path>
            <path d="M19.908,44.052 C19.908,44.329 18.864,45.836 17.577,45.836 C16.29,45.836 15.247,44.329 15.247,44.052 C15.247,43.775 16.29,43.67 17.577,43.67 C18.864,43.67 19.908,43.775 19.908,44.052" id="Fill-20" fill="#F492A6" sketch:type="MSShapeGroup"></path>
            <path d="M17.577,45.836 C18.004,45.836 18.399,45.663 18.743,45.432 C18.615,44.681 18.144,44.753 17.577,44.753 C17.011,44.753 16.54,44.681 16.412,45.432 C16.756,45.663 17.151,45.836 17.577,45.836" id="Fill-21" fill="#F9AFC0" sketch:type="MSShapeGroup"></path>
        </g>
    </g>
</svg>