<?xml version="1.0" encoding="UTF-8" standalone="no"?>
<svg width="53px" height="68px" viewBox="0 0 53 68" version="1.1" xmlns="http://www.w3.org/2000/svg" xmlns:xlink="http://www.w3.org/1999/xlink" xmlns:sketch="http://www.bohemiancoding.com/sketch/ns">
    <!-- Generator: Sketch Beta 3.3.2 (12041) - http://www.bohemiancoding.com/sketch -->
    <title>happy-beer</title>
    <desc>Created with Sketch Beta.</desc>
    <defs></defs>
    <g id="Page-1" stroke="none" stroke-width="1" fill="none" fill-rule="evenodd" sketch:type="MSPage">
        <g id="happy-beer" sketch:type="MSLayerGroup">
            <path d="M46.917,56.118 L34.246,56.118 L34.246,51.875 L46.917,51.875 C47.503,51.875 47.978,51.399 47.978,50.814 L47.978,30.603 C47.978,30.018 47.503,29.542 46.917,29.542 L38.776,29.542 L38.776,25.3 L46.917,25.3 C49.842,25.3 52.221,27.679 52.221,30.603 L52.221,50.814 C52.221,53.738 49.842,56.118 46.917,56.118" id="Fill-1" fill="#D5D8D2" sketch:type="MSShapeGroup"></path>
            <path d="M34.972,67.409 L6.442,67.409 C3.681,67.409 1.442,65.17 1.442,62.409 L1.442,15.063 C1.442,13.959 2.337,13.063 3.442,13.063 L37.972,13.063 C39.077,13.063 39.972,13.959 39.972,15.063 L39.972,62.409 C39.972,65.17 37.734,67.409 34.972,67.409" id="Fill-2" fill="#ECEDEC" sketch:type="MSShapeGroup"></path>
            <path d="M4.624,59.105 L4.624,16.427 L36.79,16.427 L36.79,59.105 C36.79,60.762 35.447,62.105 33.79,62.105 L7.624,62.105 C5.967,62.105 4.624,60.762 4.624,59.105" id="Fill-3" fill="#FFCC33" sketch:type="MSShapeGroup"></path>
            <path d="M4.624,13.063 L4.442,13.063 C3.337,13.063 2.442,13.959 2.442,15.063 L2.442,62.409 C2.442,65.17 4.68,67.409 7.442,67.409 L11.699,67.409 C8.938,67.409 6.699,65.17 6.699,62.409 L6.699,61.96 C5.495,61.57 4.624,60.44 4.624,59.105 L4.624,13.063" id="Fill-4" fill="#F7F7F6" sketch:type="MSShapeGroup"></path>
            <path d="M4.624,16.427 L4.624,59.105 C4.624,60.44 5.495,61.57 6.699,61.96 L6.699,17.427 L4.624,17.427 L4.624,16.427" id="Fill-5" fill="#FFE699" sketch:type="MSShapeGroup"></path>
            <path d="M19.207,49.012 L19.207,56.118 C19.207,56.946 19.878,57.618 20.707,57.618 C21.535,57.618 22.207,56.946 22.207,56.118 L22.207,49.012 C22.207,48.183 21.535,47.512 20.707,47.512 C19.878,47.512 19.207,48.183 19.207,49.012" id="Fill-6" fill="#E2AD27" sketch:type="MSShapeGroup"></path>
            <path d="M27.978,49.012 L27.978,56.118 C27.978,56.946 28.649,57.618 29.478,57.618 C30.306,57.618 30.978,56.946 30.978,56.118 L30.978,49.012 C30.978,48.183 30.306,47.512 29.478,47.512 C28.649,47.512 27.978,48.183 27.978,49.012" id="Fill-7" fill="#E2AD27" sketch:type="MSShapeGroup"></path>
            <path d="M10.436,49.012 L10.436,56.118 C10.436,56.946 11.108,57.618 11.936,57.618 C12.764,57.618 13.436,56.946 13.436,56.118 L13.436,49.012 C13.436,48.183 12.764,47.512 11.936,47.512 C11.108,47.512 10.436,48.183 10.436,49.012" id="Fill-8" fill="#E2AD27" sketch:type="MSShapeGroup"></path>
            <path d="M8.619,13.432 C8.619,15.639 6.83,17.427 4.624,17.427 C2.417,17.427 0.628,15.639 0.628,13.432 C0.628,11.225 2.417,9.436 4.624,9.436 C6.83,9.436 8.619,11.225 8.619,13.432" id="Fill-9" fill="#F9F0D9" sketch:type="MSShapeGroup"></path>
            <path d="M4.624,7.555 L36.79,7.555 L36.79,17.427 L4.624,17.427 L4.624,7.555 Z" id="Fill-10" fill="#F9F0D9" sketch:type="MSShapeGroup"></path>
            <path d="M12.728,7.555 C12.728,9.793 10.914,11.608 8.676,11.608 C6.438,11.608 4.624,9.793 4.624,7.555 C4.624,5.317 6.438,3.503 8.676,3.503 C10.914,3.503 12.728,5.317 12.728,7.555" id="Fill-11" fill="#F9F0D9" sketch:type="MSShapeGroup"></path>
            <path d="M22.653,5.921 C22.653,9.061 20.107,11.608 16.966,11.608 C13.825,11.608 11.279,9.061 11.279,5.921 C11.279,2.78 13.825,0.234 16.966,0.234 C20.107,0.234 22.653,2.78 22.653,5.921" id="Fill-12" fill="#F9F0D9" sketch:type="MSShapeGroup"></path>
            <path d="M29.951,6.621 C29.951,9.375 27.718,11.608 24.965,11.608 C22.211,11.608 19.978,9.375 19.978,6.621 C19.978,3.867 22.211,1.635 24.965,1.635 C27.718,1.635 29.951,3.867 29.951,6.621" id="Fill-13" fill="#F9F0D9" sketch:type="MSShapeGroup"></path>
            <path d="M31.726,8.227 C31.726,10.094 30.212,11.608 28.345,11.608 C26.478,11.608 24.965,10.094 24.965,8.227 C24.965,6.36 26.478,4.846 28.345,4.846 C30.212,4.846 31.726,6.36 31.726,8.227" id="Fill-14" fill="#F9F0D9" sketch:type="MSShapeGroup"></path>
            <path d="M36.79,7.555 C36.79,9.423 35.276,10.936 33.409,10.936 C31.542,10.936 30.028,9.423 30.028,7.555 C30.028,5.688 31.542,4.174 33.409,4.174 C35.276,4.174 36.79,5.688 36.79,7.555" id="Fill-15" fill="#F9F0D9" sketch:type="MSShapeGroup"></path>
            <path d="M27.853,34.024 C27.853,35.069 28.701,34.856 29.746,34.856 C30.791,34.856 31.639,35.069 31.639,34.024 C31.639,32.978 30.791,32.131 29.746,32.131 C28.701,32.131 27.853,32.978 27.853,34.024" id="Fill-16" fill="#41443E" sketch:type="MSShapeGroup"></path>
            <path d="M25.552,28.925 C25.552,30.311 24.428,31.435 23.042,31.435 C21.655,31.435 20.532,30.311 20.532,28.925 C20.532,27.538 21.655,26.414 23.042,26.414 C24.428,26.414 25.552,27.538 25.552,28.925" id="Fill-17" fill="#F9F0D9" sketch:type="MSShapeGroup"></path>
            <path d="M20.532,15.557 L25.552,15.557 L25.552,28.925 L20.532,28.925 L20.532,15.557 Z" id="Fill-18" fill="#F9F0D9" sketch:type="MSShapeGroup"></path>
            <path d="M13.56,34.024 C13.56,35.069 12.713,34.856 11.668,34.856 C10.622,34.856 9.775,35.069 9.775,34.024 C9.775,32.978 10.622,32.131 11.668,32.131 C12.713,32.131 13.56,32.978 13.56,34.024" id="Fill-19" fill="#41443E" sketch:type="MSShapeGroup"></path>
            <path d="M24.965,38.719 C24.965,39.85 23.058,42.888 20.707,42.888 C18.355,42.888 16.449,39.85 16.449,38.719 C16.449,37.588 18.355,36.671 20.707,36.671 C23.058,36.671 24.965,37.588 24.965,38.719" id="Fill-20" fill="#F492A6" sketch:type="MSShapeGroup"></path>
            <path d="M31.166,38.36 C31.166,39.144 30.53,39.78 29.746,39.78 C28.962,39.78 28.327,39.144 28.327,38.36 C28.327,37.576 28.962,36.94 29.746,36.94 C30.53,36.94 31.166,37.576 31.166,38.36" id="Fill-21" fill="#E2AD27" sketch:type="MSShapeGroup"></path>
            <path d="M10.248,38.36 C10.248,39.144 10.884,39.78 11.668,39.78 C12.452,39.78 13.087,39.144 13.087,38.36 C13.087,37.576 12.452,36.94 11.668,36.94 C10.884,36.94 10.248,37.576 10.248,38.36" id="Fill-22" fill="#E2AD27" sketch:type="MSShapeGroup"></path>
            <path d="M37.972,13.063 L36.79,13.063 L36.79,59.105 C36.79,60.762 35.447,62.105 33.79,62.105 L28.933,62.105 L28.933,62.409 C28.933,65.17 26.694,67.409 23.933,67.409 L34.972,67.409 C37.734,67.409 39.972,65.17 39.972,62.409 L39.972,15.063 C39.972,13.959 39.077,13.063 37.972,13.063" id="Fill-23" fill="#E3E4E2" sketch:type="MSShapeGroup"></path>
            <path d="M36.79,17.427 L28.933,17.427 L28.933,32.314 C29.179,32.197 29.455,32.131 29.746,32.131 C30.791,32.131 31.639,32.978 31.639,34.024 C31.639,34.766 31.211,34.873 30.589,34.873 C30.336,34.873 30.049,34.856 29.746,34.856 C29.455,34.856 29.179,34.872 28.933,34.873 L28.933,37.196 C29.163,37.035 29.444,36.94 29.746,36.94 C30.53,36.94 31.166,37.576 31.166,38.36 C31.166,39.144 30.53,39.78 29.746,39.78 C29.444,39.78 29.163,39.685 28.933,39.524 L28.933,47.614 C29.102,47.548 29.285,47.512 29.478,47.512 C30.306,47.512 30.978,48.183 30.978,49.012 L30.978,56.118 C30.978,56.946 30.306,57.618 29.478,57.618 C29.285,57.618 29.102,57.582 28.933,57.515 L28.933,62.105 L33.79,62.105 C35.447,62.105 36.79,60.762 36.79,59.105 L36.79,17.427" id="Fill-24" fill="#F6C534" sketch:type="MSShapeGroup"></path>
            <path d="M29.478,47.512 C29.285,47.512 29.102,47.548 28.933,47.614 L28.933,57.515 C29.102,57.582 29.285,57.618 29.478,57.618 C30.306,57.618 30.978,56.946 30.978,56.118 L30.978,49.012 C30.978,48.183 30.306,47.512 29.478,47.512" id="Fill-25" fill="#DAA828" sketch:type="MSShapeGroup"></path>
            <path d="M36.79,13.063 L26.933,13.063 C28.037,13.063 28.933,13.959 28.933,15.063 L28.933,17.427 L36.79,17.427 L36.79,13.063" id="Fill-26" fill="#F0E7D1" sketch:type="MSShapeGroup"></path>
            <path d="M29.746,32.131 C29.455,32.131 29.179,32.197 28.933,32.314 L28.933,34.873 C29.179,34.872 29.455,34.856 29.746,34.856 C30.049,34.856 30.336,34.873 30.589,34.873 C31.211,34.873 31.639,34.766 31.639,34.024 C31.639,32.978 30.791,32.131 29.746,32.131" id="Fill-27" fill="#41443E" sketch:type="MSShapeGroup"></path>
            <path d="M29.746,36.94 C29.444,36.94 29.163,37.035 28.933,37.196 L28.933,39.524 C29.163,39.685 29.444,39.78 29.746,39.78 C30.53,39.78 31.166,39.144 31.166,38.36 C31.166,37.576 30.53,36.94 29.746,36.94" id="Fill-28" fill="#DAA828" sketch:type="MSShapeGroup"></path>
            <path d="M40.306,13.911 C40.306,15.853 38.732,17.427 36.79,17.427 C34.848,17.427 33.273,15.853 33.273,13.911 C33.273,11.969 34.848,10.394 36.79,10.394 C38.732,10.394 40.306,11.969 40.306,13.911" id="Fill-29" fill="#F9F0D9" sketch:type="MSShapeGroup"></path>
            <path d="M21.506,36.115 C21.163,36.115 20.876,36.32 20.707,36.611 C20.537,36.32 20.25,36.115 19.907,36.115 C19.378,36.115 18.948,36.577 18.948,37.147 C18.948,37.718 19.378,38.18 19.907,38.18 C20.25,38.18 20.537,37.975 20.707,37.684 C20.876,37.975 21.163,38.18 21.506,38.18 C22.036,38.18 22.466,37.718 22.466,37.147 C22.466,36.577 22.036,36.115 21.506,36.115" id="Fill-30" fill="#F9F0D9" sketch:type="MSShapeGroup"></path>
        </g>
    </g>
</svg>