<?xml version="1.0" encoding="UTF-8" standalone="no"?>
<svg width="33px" height="57px" viewBox="0 0 33 57" version="1.1" xmlns="http://www.w3.org/2000/svg" xmlns:xlink="http://www.w3.org/1999/xlink" xmlns:sketch="http://www.bohemiancoding.com/sketch/ns">
    <!-- Generator: Sketch Beta 3.3.2 (12041) - http://www.bohemiancoding.com/sketch -->
    <title>happy-icecream-cone</title>
    <desc>Created with Sketch Beta.</desc>
    <defs></defs>
    <g id="Page-1" stroke="none" stroke-width="1" fill="none" fill-rule="evenodd" sketch:type="MSPage">
        <g id="happy-icecream-cone" sketch:type="MSLayerGroup">
            <g id="Page-1" sketch:type="MSShapeGroup">
                <path d="M32.867,16.818 C32.867,25.639 25.716,32.79 16.895,32.79 C8.074,32.79 0.923,25.639 0.923,16.818 C0.923,7.997 8.074,0.846 16.895,0.846 C25.716,0.846 32.867,7.997 32.867,16.818" id="Fill-1" fill="#736357"></path>
                <path d="M3.721,27.729 L15.048,55.1 C15.765,56.643 17.958,56.643 18.675,55.1 L30.002,27.729 L3.721,27.729" id="Fill-2" fill="#E8C274"></path>
                <path d="M3.788,27.891 L3.788,27.891 L4.667,30.016 L3.788,27.891" id="Fill-3" fill="#ECECEC"></path>
                <path d="M30.002,27.729 L16.862,27.729 L16.862,27.891 L3.788,27.891 L5.31,31.568 L21.862,31.568 L16.862,56.257 C17.589,56.257 18.317,55.871 18.675,55.1 L30.002,27.729" id="Fill-4" fill="#D7B56E"></path>
                <path d="M29.506,29.568 L4.217,29.568 C3.665,29.568 3.217,29.121 3.217,28.568 L3.217,25.891 L30.506,25.891 L30.506,28.568 C30.506,29.121 30.058,29.568 29.506,29.568" id="Fill-5" fill="#E8C274"></path>
                <path d="M9.688,25.891 C9.688,26.913 8.075,27.741 6.085,27.741 C4.095,27.741 2.482,26.913 2.482,25.891 C2.482,24.868 4.095,24.04 6.085,24.04 C8.075,24.04 9.688,24.868 9.688,25.891" id="Fill-6" fill="#736357"></path>
                <path d="M16.895,25.891 C16.895,26.913 15.282,27.741 13.292,27.741 C11.302,27.741 9.688,26.913 9.688,25.891 C9.688,24.868 11.302,24.04 13.292,24.04 C15.282,24.04 16.895,24.868 16.895,25.891" id="Fill-7" fill="#736357"></path>
                <path d="M24.102,25.891 C24.102,26.913 22.489,27.741 20.498,27.741 C18.508,27.741 16.895,26.913 16.895,25.891 C16.895,24.868 18.508,24.04 20.498,24.04 C22.489,24.04 24.102,24.868 24.102,25.891" id="Fill-8" fill="#736357"></path>
                <path d="M31.309,25.891 C31.309,26.913 29.695,27.741 27.705,27.741 C25.715,27.741 24.102,26.913 24.102,25.891 C24.102,24.868 25.715,24.04 27.705,24.04 C29.695,24.04 31.309,24.868 31.309,25.891" id="Fill-9" fill="#736357"></path>
                <path d="M10.335,12.509 C10.335,13.469 9.556,13.449 8.595,13.449 C7.634,13.449 6.855,13.469 6.855,12.509 C6.855,11.548 7.634,10.769 8.595,10.769 C9.556,10.769 10.335,11.548 10.335,12.509" id="Fill-10" fill="#41443E"></path>
                <path d="M23.389,12.509 C23.389,13.469 24.168,13.449 25.128,13.449 C26.089,13.449 26.868,13.469 26.868,12.509 C26.868,11.548 26.089,10.769 25.128,10.769 C24.168,10.769 23.389,11.548 23.389,12.509" id="Fill-11" fill="#41443E"></path>
                <path d="M11.929,15.639 C12.585,17.74 14.545,19.265 16.862,19.265 C19.178,19.265 21.138,17.74 21.794,15.639 L11.929,15.639" id="Fill-12" fill="#F492A6"></path>
                <path d="M16.143,16.544 C16.444,16.544 16.697,16.388 16.862,16.162 C17.026,16.388 17.28,16.544 17.58,16.544 C18.08,16.544 18.485,16.139 18.485,15.639 L15.238,15.639 C15.238,16.139 15.643,16.544 16.143,16.544" id="Fill-13" fill="#FFFFFF"></path>
                <path d="M8.595,14.04 C7.948,14.04 7.423,14.565 7.423,15.212 C7.423,15.859 7.948,16.384 8.595,16.384 C9.242,16.384 9.767,15.859 9.767,15.212 C9.767,14.565 9.242,14.04 8.595,14.04" id="Fill-14" fill="#8D6C67"></path>
                <path d="M25.128,14.04 C24.481,14.04 23.956,14.565 23.956,15.212 C23.956,15.859 24.481,16.384 25.128,16.384 C25.776,16.384 26.3,15.859 26.3,15.212 C26.3,14.565 25.776,14.04 25.128,14.04" id="Fill-15" fill="#8D6C67"></path>
                <path d="M12.926,35.738 C12.458,35.97 11.785,36.118 11.028,36.118 C10.27,36.118 9.597,35.97 9.129,35.738 C9.257,36.289 10.053,36.715 11.028,36.715 C12.002,36.715 12.799,36.289 12.926,35.738" id="Fill-16" fill="#D7B56E"></path>
                <path d="M18.055,38.438 C17.587,38.669 16.914,38.818 16.157,38.818 C15.4,38.818 14.727,38.669 14.259,38.438 C14.386,38.989 15.183,39.415 16.157,39.415 C17.131,39.415 17.928,38.989 18.055,38.438" id="Fill-17" fill="#D7B56E"></path>
                <path d="M15.726,41.993 C15.258,42.224 14.585,42.373 13.827,42.373 C13.07,42.373 12.397,42.224 11.929,41.993 C12.056,42.544 12.853,42.97 13.827,42.97 C14.802,42.97 15.598,42.544 15.726,41.993" id="Fill-18" fill="#D7B56E"></path>
                <path d="M12.272,3.536 C11.404,3.536 10.292,3.917 9.244,4.641 C7.468,5.868 6.548,7.617 7.19,8.546 C7.453,8.927 7.938,9.111 8.541,9.111 C9.409,9.111 10.521,8.73 11.569,8.006 C13.345,6.778 14.265,5.03 13.623,4.101 C13.36,3.72 12.875,3.536 12.272,3.536" id="Fill-19" fill="#8C7B6E"></path>
            </g>
        </g>
    </g>
</svg>