<?xml version="1.0" encoding="UTF-8" standalone="no"?>
<svg width="44px" height="53px" viewBox="0 0 44 53" version="1.1" xmlns="http://www.w3.org/2000/svg" xmlns:xlink="http://www.w3.org/1999/xlink" xmlns:sketch="http://www.bohemiancoding.com/sketch/ns">
    <!-- Generator: Sketch Beta 3.3.2 (12041) - http://www.bohemiancoding.com/sketch -->
    <title>happy-french-fries</title>
    <desc>Created with Sketch Beta.</desc>
    <defs></defs>
    <g id="Page-1" stroke="none" stroke-width="1" fill="none" fill-rule="evenodd" sketch:type="MSPage">
        <g id="happy-french-fries" sketch:type="MSLayerGroup">
            <g id="Page-1" sketch:type="MSShapeGroup">
                <path d="M3.327,0.492 L7.637,0.492 L7.637,3.337 L3.327,3.337 L3.327,0.492 Z" id="Fill-1" fill="#FFE578"></path>
                <path d="M3.327,1.793 L7.637,1.793 L7.637,35.99 L3.327,35.99 L3.327,1.793 Z" id="Fill-2" fill="#FFCC33"></path>
                <path d="M7.637,1.793 L6.335,1.793 L6.335,19.789 C6.722,20.347 7.158,20.884 7.637,21.393 L7.637,1.793" id="Fill-3" fill="#ECB628"></path>
                <path d="M8.895,0.492 L13.205,0.492 L13.205,3.337 L8.895,3.337 L8.895,0.492 Z" id="Fill-4" fill="#FFE578"></path>
                <path d="M8.895,1.793 L13.205,1.793 L13.205,35.99 L8.895,35.99 L8.895,1.793 Z" id="Fill-5" fill="#FFCC33"></path>
                <path d="M13.206,1.793 L11.904,1.793 L11.904,24.638 C12.325,24.865 12.76,25.079 13.206,25.278 L13.206,1.793" id="Fill-6" fill="#ECB628"></path>
                <path d="M14.464,0.492 L18.774,0.492 L18.774,3.337 L14.464,3.337 L14.464,0.492 Z" id="Fill-7" fill="#FFE578"></path>
                <path d="M14.464,1.793 L18.774,1.793 L18.774,35.99 L14.464,35.99 L14.464,1.793 Z" id="Fill-8" fill="#FFCC33"></path>
                <path d="M18.775,1.793 L17.473,1.793 L17.473,26.649 C17.901,26.738 18.335,26.816 18.775,26.881 L18.775,1.793" id="Fill-9" fill="#ECB628"></path>
                <path d="M20.033,0.492 L24.343,0.492 L24.343,3.337 L20.033,3.337 L20.033,0.492 Z" id="Fill-10" fill="#FFE578"></path>
                <path d="M20.033,1.793 L24.343,1.793 L24.343,35.99 L20.033,35.99 L20.033,1.793 Z" id="Fill-11" fill="#FFCC33"></path>
                <path d="M24.343,1.793 L23.042,1.793 L23.042,27.115 C23.48,27.099 23.914,27.071 24.343,27.032 L24.343,1.793" id="Fill-12" fill="#ECB628"></path>
                <path d="M25.602,0.492 L29.912,0.492 L29.912,3.337 L25.602,3.337 L25.602,0.492 Z" id="Fill-13" fill="#FFE578"></path>
                <path d="M25.602,1.793 L29.912,1.793 L29.912,35.99 L25.602,35.99 L25.602,1.793 Z" id="Fill-14" fill="#FFCC33"></path>
                <path d="M29.912,1.793 L28.611,1.793 L28.611,26.219 C29.053,26.089 29.488,25.945 29.912,25.789 L29.912,1.793" id="Fill-15" fill="#ECB628"></path>
                <path d="M31.171,0.492 L35.481,0.492 L35.481,3.337 L31.171,3.337 L31.171,0.492 Z" id="Fill-16" fill="#FFE578"></path>
                <path d="M31.171,1.793 L35.481,1.793 L35.481,35.99 L31.171,35.99 L31.171,1.793 Z" id="Fill-17" fill="#FFCC33"></path>
                <path d="M35.481,1.793 L34.18,1.793 L34.18,23.594 C34.635,23.279 35.07,22.946 35.481,22.597 L35.481,1.793" id="Fill-18" fill="#ECB628"></path>
                <path d="M36.74,0.492 L41.05,0.492 L41.05,3.337 L36.74,3.337 L36.74,0.492 Z" id="Fill-19" fill="#FFE578"></path>
                <path d="M36.74,1.793 L41.05,1.793 L41.05,35.99 L36.74,35.99 L36.74,1.793 Z" id="Fill-20" fill="#FFCC33"></path>
                <path d="M41.05,1.793 L39.748,1.793 L39.748,16.156 L39.784,16.045 L41.05,16.045 L41.05,1.793" id="Fill-21" fill="#ECB628"></path>
                <path d="M39.784,16.045 C38.138,22.367 30.887,27.13 22.188,27.13 C13.489,27.13 6.239,22.367 4.593,16.045 L0.777,16.045 L4.499,52.409 L39.877,52.409 L43.6,16.045 L39.784,16.045" id="Fill-22" fill="#EF4B3A"></path>
                <path d="M7.637,21.393 L7.637,21.402 C7.971,21.759 8.328,22.102 8.704,22.432 C8.712,22.436 8.72,22.44 8.728,22.444 C8.343,22.108 7.979,21.757 7.637,21.393 M3.327,16.045 L1.913,16.045 L3.327,16.045" id="Fill-23" fill="#D9DAD8"></path>
                <path d="M4.593,16.045 L3.327,16.045 L4.593,16.045 C4.939,17.374 5.532,18.634 6.335,19.795 L6.335,19.789 C5.533,18.629 4.938,17.372 4.593,16.045" id="Fill-24" fill="#D9B135"></path>
                <path d="M6.335,19.789 L6.335,19.795 C6.722,20.355 7.157,20.892 7.637,21.402 L7.637,21.393 C7.158,20.884 6.722,20.347 6.335,19.789" id="Fill-25" fill="#C99F2C"></path>
                <path d="M4.593,16.045 L1.913,16.045 C3.284,18.671 5.674,20.893 8.704,22.432 C8.328,22.102 7.971,21.759 7.637,21.402 C7.157,20.892 6.722,20.355 6.335,19.795 C5.532,18.634 4.939,17.374 4.593,16.045" id="Fill-26" fill="#CC4A3B"></path>
                <path d="M41.05,16.045 L43.6,16.045" id="Fill-27" fill="#D9DAD8"></path>
                <path d="M39.748,16.156 L39.705,16.291 L39.699,16.354 C39.716,16.295 39.732,16.237 39.748,16.178 L39.748,16.156" id="Fill-28" fill="#D9B135"></path>
                <path d="M41.05,16.045 L39.784,16.045 L39.748,16.156 L39.748,16.178 C39.76,16.134 39.772,16.089 39.784,16.045 L41.05,16.045" id="Fill-29" fill="#C99F2C"></path>
                <path d="M43.6,16.045 L39.784,16.045 C39.772,16.089 39.76,16.134 39.748,16.178 C39.732,16.237 39.716,16.295 39.699,16.354 L36.255,49.994 L4.252,49.994 L4.499,52.409 L39.877,52.409 L43.6,16.045" id="Fill-30" fill="#CC4A3B"></path>
                <path d="M30.044,33.621 C30.044,34.643 30.872,35.412 31.895,35.412 C32.917,35.412 33.746,34.643 33.746,33.621 C33.746,32.598 32.917,31.77 31.895,31.77 C30.872,31.77 30.044,32.598 30.044,33.621" id="Fill-31" fill="#41443E"></path>
                <path d="M14.333,33.621 C14.333,34.643 13.504,35.412 12.482,35.412 C11.46,35.412 10.631,34.643 10.631,33.621 C10.631,32.598 11.46,31.77 12.482,31.77 C13.504,31.77 14.333,32.598 14.333,33.621" id="Fill-32" fill="#41443E"></path>
                <path d="M27.329,39.297 C27.329,40.662 27.329,44.33 22.188,44.33 C17.048,44.33 17.048,40.662 17.048,39.297 C17.048,37.931 19.349,36.824 22.188,36.824 C25.027,36.824 27.329,37.931 27.329,39.297" id="Fill-33" fill="#F492A6"></path>
                <path d="M33.609,38.863 C33.609,39.81 32.841,40.577 31.895,40.577 C30.948,40.577 30.181,39.81 30.181,38.863 C30.181,37.916 30.948,37.149 31.895,37.149 C32.841,37.149 33.609,37.916 33.609,38.863" id="Fill-34" fill="#F492A6"></path>
                <path d="M10.768,38.863 C10.768,39.81 11.535,40.577 12.482,40.577 C13.429,40.577 14.196,39.81 14.196,38.863 C14.196,37.916 13.429,37.149 12.482,37.149 C11.535,37.149 10.768,37.916 10.768,38.863" id="Fill-35" fill="#F492A6"></path>
                <path d="M22.188,36.824 C21.336,36.824 20.544,36.934 19.836,37.11 C19.915,37.813 20.441,38.366 21.105,38.366 C21.57,38.366 21.959,38.084 22.188,37.682 C22.418,38.084 22.807,38.366 23.272,38.366 C23.936,38.366 24.462,37.813 24.541,37.11 C23.833,36.934 23.041,36.824 22.188,36.824" id="Fill-36" fill="#F9F0D9"></path>
                <path d="M25.954,43.195 C25.479,41.491 23.982,40.237 22.188,40.237 C20.395,40.237 18.898,41.491 18.422,43.195 C19.181,43.858 18.808,47.952 22.188,47.952 C25.568,47.952 25.196,43.858 25.954,43.195" id="Fill-37" fill="#FCC8D4"></path>
            </g>
        </g>
    </g>
</svg>