<?xml version="1.0" encoding="UTF-8" standalone="no"?>
<svg width="33px" height="59px" viewBox="0 0 33 59" version="1.1" xmlns="http://www.w3.org/2000/svg" xmlns:xlink="http://www.w3.org/1999/xlink" xmlns:sketch="http://www.bohemiancoding.com/sketch/ns">
    <!-- Generator: Sketch Beta 3.3.2 (12041) - http://www.bohemiancoding.com/sketch -->
    <title>happy-chicken-drumstick</title>
    <desc>Created with Sketch Beta.</desc>
    <defs></defs>
    <g id="Page-1" stroke="none" stroke-width="1" fill="none" fill-rule="evenodd" sketch:type="MSPage">
        <g id="happy-chicken-drumstick" sketch:type="MSLayerGroup">
            <path d="M19.458,52.782 L19.458,35.307 L13.863,35.307 L13.863,52.782 C12.469,52.986 11.395,54.175 11.395,55.627 C11.395,57.221 12.687,58.514 14.282,58.514 C15.27,58.514 16.14,58.016 16.661,57.259 C17.181,58.016 18.052,58.514 19.04,58.514 C20.634,58.514 21.927,57.221 21.927,55.627 C21.927,54.175 20.853,52.986 19.458,52.782" id="Fill-1" fill="#D5D8D2" sketch:type="MSShapeGroup"></path>
            <path d="M20.485,58.127 C20.06,58.373 19.566,58.514 19.04,58.514 C19.566,58.514 20.06,58.373 20.485,58.127 M20.528,58.101 C20.526,58.102 20.524,58.104 20.522,58.105 C20.524,58.104 20.526,58.102 20.528,58.101 M11.395,55.618 L11.395,55.627 L11.395,55.618 M21.927,55.618 L21.927,55.627 L21.927,55.618" id="Fill-2" fill="#F6F6F6" sketch:type="MSShapeGroup"></path>
            <path d="M21.879,55.104 C21.65,56.47 20.471,57.514 19.04,57.514 C18.052,57.514 17.181,57.016 16.661,56.259 C16.14,57.016 15.27,57.514 14.282,57.514 C12.851,57.514 11.671,56.47 11.443,55.104 C11.412,55.271 11.395,55.443 11.395,55.618 L11.395,55.627 C11.395,57.221 12.687,58.514 14.282,58.514 C15.27,58.514 16.14,58.016 16.661,57.259 C17.181,58.016 18.052,58.514 19.04,58.514 C19.566,58.514 20.06,58.373 20.485,58.127 C20.497,58.12 20.51,58.112 20.522,58.105 C20.524,58.104 20.526,58.102 20.528,58.101 C21.366,57.596 21.927,56.677 21.927,55.627 L21.927,55.618 C21.927,55.443 21.909,55.271 21.879,55.104" id="Fill-3" fill="#CDD0CA" sketch:type="MSShapeGroup"></path>
            <path d="M17.149,44.925 C16.987,44.935 16.824,44.94 16.661,44.94 C16.653,44.94 16.645,44.94 16.637,44.939 L16.624,44.939 L16.616,44.939 C16.468,44.939 16.319,44.934 16.173,44.925 C16.234,48.382 16.429,50.91 16.661,50.91 C16.893,50.91 17.088,48.382 17.149,44.925" id="Fill-4" fill="#CDD0CA" sketch:type="MSShapeGroup"></path>
            <path d="M32.796,18.366 C32.796,30.744 25.572,44.94 16.661,44.94 C7.749,44.94 0.525,30.744 0.525,18.366 C0.525,5.989 7.749,0.116 16.661,0.116 C25.572,0.116 32.796,5.989 32.796,18.366" id="Fill-5" fill="#BA9774" sketch:type="MSShapeGroup"></path>
            <path d="M26.792,3.433 L26.793,3.434 L26.792,3.433 M16.661,0.116 L16.661,0.116 C20.472,0.116 23.974,1.19 26.735,3.388 C23.974,1.19 20.472,0.116 16.661,0.116" id="Fill-6" fill="#ECECEC" sketch:type="MSShapeGroup"></path>
            <path d="M16.637,44.939 C16.645,44.94 16.653,44.94 16.661,44.94 C16.653,44.94 16.645,44.94 16.637,44.939 M16.616,44.939 L16.624,44.939 L16.616,44.939" id="Fill-7" fill="#BFC2BC" sketch:type="MSShapeGroup"></path>
            <path d="M16.661,0.116 L16.661,0.116 C15.742,0.116 14.847,0.194 13.971,0.32 C20.428,1.331 23.183,6.423 23.555,15.984 C23.752,15.85 23.989,15.772 24.245,15.772 C24.92,15.772 25.468,16.319 25.468,16.995 C25.468,17.67 24.92,18.218 24.245,18.218 C24.008,18.218 23.786,18.151 23.599,18.034 C23.6,18.144 23.6,18.255 23.6,18.366 C23.6,29.472 20.954,42.033 13.974,44.5 C14.834,44.777 15.716,44.934 16.616,44.939 L16.624,44.939 L16.637,44.939 C16.645,44.94 16.653,44.94 16.661,44.94 C25.572,44.94 32.796,30.744 32.796,18.366 C32.796,11.319 30.455,6.381 26.793,3.434 L26.792,3.433 C26.773,3.418 26.754,3.403 26.735,3.388 C23.974,1.19 20.472,0.116 16.661,0.116" id="Fill-8" fill="#AE8F6E" sketch:type="MSShapeGroup"></path>
            <path d="M9.418,32.882 C8.726,32.882 8.164,33.444 8.164,34.136 C8.164,34.829 8.726,35.39 9.418,35.39 C10.111,35.39 10.672,34.829 10.672,34.136 C10.672,33.444 10.111,32.882 9.418,32.882" id="Fill-9" fill="#A28669" sketch:type="MSShapeGroup"></path>
            <path d="M19.21,29.537 C18.518,29.537 17.956,30.098 17.956,30.791 C17.956,31.483 18.518,32.045 19.21,32.045 C19.903,32.045 20.464,31.483 20.464,30.791 C20.464,30.098 19.903,29.537 19.21,29.537" id="Fill-10" fill="#A28669" sketch:type="MSShapeGroup"></path>
            <path d="M12.067,27.496 C11.375,27.496 10.813,28.057 10.813,28.75 C10.813,29.442 11.375,30.004 12.067,30.004 C12.76,30.004 13.321,29.442 13.321,28.75 C13.321,28.057 12.76,27.496 12.067,27.496" id="Fill-11" fill="#A28669" sketch:type="MSShapeGroup"></path>
            <path d="M6.91,23.151 C6.218,23.151 5.656,23.712 5.656,24.405 C5.656,25.097 6.218,25.659 6.91,25.659 C7.603,25.659 8.164,25.097 8.164,24.405 C8.164,23.712 7.603,23.151 6.91,23.151" id="Fill-12" fill="#A28669" sketch:type="MSShapeGroup"></path>
            <path d="M10.548,14.094 C10.548,14.907 9.889,14.889 9.077,14.889 C8.265,14.889 7.606,14.907 7.606,14.094 C7.606,13.282 8.265,12.624 9.077,12.624 C9.889,12.624 10.548,13.282 10.548,14.094" id="Fill-13" fill="#41443E" sketch:type="MSShapeGroup"></path>
            <path d="M22.774,14.094 C22.774,14.907 23.433,14.889 24.245,14.889 C25.057,14.889 25.716,14.907 25.716,14.094 C25.716,13.282 25.057,12.624 24.245,12.624 C23.433,12.624 22.774,13.282 22.774,14.094" id="Fill-14" fill="#41443E" sketch:type="MSShapeGroup"></path>
            <path d="M21.809,16.875 L11.513,16.875 L11.513,17.441 C11.513,17.441 13.382,20.224 16.661,20.224 C20.026,20.224 21.809,17.441 21.809,17.441 L21.809,16.875" id="Fill-15" fill="#A28669" sketch:type="MSShapeGroup"></path>
            <path d="M11.513,17.441 C12.197,19.633 14.243,21.224 16.661,21.224 C19.079,21.224 21.124,19.633 21.809,17.441 L11.513,17.441" id="Fill-16" fill="#F492A6" sketch:type="MSShapeGroup"></path>
            <path d="M15.911,18.385 C16.224,18.385 16.489,18.222 16.661,17.986 C16.833,18.222 17.097,18.385 17.411,18.385 C17.932,18.385 18.355,17.962 18.355,17.441 L14.966,17.441 C14.966,17.962 15.389,18.385 15.911,18.385" id="Fill-17" fill="#FFFFFF" sketch:type="MSShapeGroup"></path>
            <path d="M9.077,15.772 C8.401,15.772 7.853,16.319 7.853,16.995 C7.853,17.67 8.401,18.218 9.077,18.218 C9.752,18.218 10.3,17.67 10.3,16.995 C10.3,16.319 9.752,15.772 9.077,15.772" id="Fill-18" fill="#D7948D" sketch:type="MSShapeGroup"></path>
            <path d="M23.555,15.984 C23.233,16.205 23.022,16.575 23.022,16.995 C23.022,17.433 23.252,17.818 23.599,18.034 C23.596,17.329 23.581,16.646 23.555,15.984" id="Fill-19" fill="#D7948D" sketch:type="MSShapeGroup"></path>
            <path d="M24.245,15.772 C23.989,15.772 23.752,15.85 23.555,15.984 C23.581,16.646 23.596,17.329 23.599,18.034 C23.786,18.151 24.008,18.218 24.245,18.218 C24.92,18.218 25.468,17.67 25.468,16.995 C25.468,16.319 24.92,15.772 24.245,15.772" id="Fill-20" fill="#D1918A" sketch:type="MSShapeGroup"></path>
            <path d="M13.406,20.127 C14.31,20.814 15.437,21.224 16.661,21.224 C17.885,21.224 19.011,20.814 19.916,20.127 C19.252,19.499 18.05,19.073 16.661,19.073 C15.272,19.073 14.069,19.499 13.406,20.127" id="Fill-21" fill="#F8C9D3" sketch:type="MSShapeGroup"></path>
        </g>
    </g>
</svg>