<?xml version="1.0" encoding="UTF-8" standalone="no"?>
<svg width="36px" height="61px" viewBox="0 0 36 61" version="1.1" xmlns="http://www.w3.org/2000/svg" xmlns:xlink="http://www.w3.org/1999/xlink" xmlns:sketch="http://www.bohemiancoding.com/sketch/ns">
    <!-- Generator: Sketch Beta 3.3.2 (12041) - http://www.bohemiancoding.com/sketch -->
    <title>happy-wine-glass</title>
    <desc>Created with Sketch Beta.</desc>
    <defs></defs>
    <g id="Page-1" stroke="none" stroke-width="1" fill="none" fill-rule="evenodd" sketch:type="MSPage">
        <g id="happy-wine-glass" sketch:type="MSLayerGroup">
            <path d="M0.944,2.313 L0.944,19.904 C0.944,29.339 8.325,37.433 17.759,37.606 C27.37,37.782 35.217,30.043 35.217,20.472 L35.217,2.313 C35.217,1.522 34.575,0.88 33.783,0.88 L2.377,0.88 C1.585,0.88 0.944,1.522 0.944,2.313" id="Fill-1" fill="#ECEDEC" sketch:type="MSShapeGroup"></path>
            <path d="M18.079,23.194 C16.597,23.194 15.63,22.131 15.589,22.086 C15.405,21.88 15.423,21.564 15.629,21.38 C15.832,21.196 16.147,21.212 16.333,21.418 C16.34,21.426 17.054,22.194 18.079,22.194 C19.13,22.194 19.98,21.399 19.988,21.392 C20.186,21.201 20.503,21.208 20.695,21.408 C20.885,21.607 20.879,21.922 20.681,22.113 C20.635,22.157 19.54,23.194 18.079,23.194" id="Fill-2" fill="#D5D8D2" sketch:type="MSShapeGroup"></path>
            <path d="M18.08,55.353 C10.941,55.353 5.153,57.574 5.153,60.313 L31.007,60.313 C31.007,57.574 25.22,55.353 18.08,55.353" id="Fill-3" fill="#ECEDEC" sketch:type="MSShapeGroup"></path>
            <path d="M16.233,29.14 L19.926,29.14 L19.926,57.072 L16.233,57.072 L16.233,29.14 Z" id="Fill-4" fill="#ECEDEC" sketch:type="MSShapeGroup"></path>
            <path d="M3.84,24.661 C5.766,30.8 11.29,35.325 17.798,35.444 L18.081,35.447 C22.08,35.447 25.841,33.889 28.669,31.061 C30.48,29.25 31.762,27.055 32.456,24.661 L3.84,24.661" id="Fill-5" fill="#F44D61" sketch:type="MSShapeGroup"></path>
            <path d="M10.886,18.085 C10.886,19.066 10.091,18.499 9.111,18.499 C8.13,18.499 7.335,19.066 7.335,18.085 C7.335,17.105 8.13,16.31 9.111,16.31 C10.091,16.31 10.886,17.105 10.886,18.085" id="Fill-6" fill="#41443E" sketch:type="MSShapeGroup"></path>
            <path d="M16.233,36.187 C15.93,36.318 15.622,36.441 15.31,36.555 C15.614,36.667 15.922,36.772 16.233,36.867 L16.233,36.187 M33.783,0.88 L25.135,0.88 C25.926,0.88 26.568,1.522 26.568,2.313 L26.568,20.472 C26.568,21.918 26.389,23.321 26.051,24.661 L32.456,24.661 C31.762,27.055 30.48,29.25 28.669,31.061 C26.28,33.449 23.227,34.932 19.927,35.335 L19.927,37.51 C28.523,36.59 35.217,29.313 35.217,20.472 L35.217,2.313 C35.217,1.522 34.575,0.88 33.783,0.88" id="Fill-7" fill="#E3E4E2" sketch:type="MSShapeGroup"></path>
            <path d="M19.927,35.335 C19.319,35.409 18.703,35.447 18.081,35.447 L17.798,35.444 C17.78,35.444 17.761,35.444 17.743,35.443 C17.254,35.715 16.75,35.963 16.233,36.187 L16.233,36.867 C17.347,37.208 18.51,37.434 19.711,37.532 C19.783,37.525 19.855,37.518 19.927,37.51 L19.927,35.335" id="Fill-8" fill="#E3E4E2" sketch:type="MSShapeGroup"></path>
            <path d="M32.456,24.661 L26.051,24.661 C24.884,29.297 21.825,33.177 17.743,35.443 C17.761,35.444 17.78,35.444 17.798,35.444 L18.081,35.447 C18.703,35.447 19.319,35.409 19.927,35.335 C23.227,34.932 26.28,33.449 28.669,31.061 C30.48,29.25 31.762,27.055 32.456,24.661" id="Fill-9" fill="#EC4D5F" sketch:type="MSShapeGroup"></path>
            <path d="M14.266,36.898 C14.11,36.944 13.953,36.988 13.795,37.03 C14.587,37.242 15.4,37.404 16.233,37.502 L16.233,37.366 C15.563,37.25 14.906,37.093 14.266,36.898" id="Fill-10" fill="#E3E4E2" sketch:type="MSShapeGroup"></path>
            <path d="M16.233,37.366 L16.233,37.502 C16.735,37.561 17.243,37.596 17.759,37.606 C17.866,37.608 17.974,37.609 18.08,37.609 C18.247,37.609 18.414,37.606 18.58,37.602 C17.782,37.578 16.998,37.499 16.233,37.366" id="Fill-11" fill="#E3E4E2" sketch:type="MSShapeGroup"></path>
            <path d="M5.377,0.88 L3.377,0.88 C2.585,0.88 1.943,1.522 1.943,2.313 L1.943,19.904 C1.943,27.777 7.083,34.716 14.266,36.898 C14.619,36.795 14.967,36.68 15.31,36.555 C12.563,35.534 10.153,33.807 8.267,31.605 C6.241,29.765 4.69,27.37 3.84,24.661 L4.584,24.661 C4.166,23.139 3.944,21.542 3.944,19.904 L3.944,2.313 C3.944,1.522 4.585,0.88 5.377,0.88" id="Fill-12" fill="#F7F7F6" sketch:type="MSShapeGroup"></path>
            <path d="M4.584,24.661 L3.84,24.661 C4.69,27.37 6.241,29.765 8.267,31.605 C6.568,29.621 5.294,27.25 4.584,24.661" id="Fill-13" fill="#FAA6B0" sketch:type="MSShapeGroup"></path>
            <path d="M19.927,37.548 L19.927,37.573 C19.994,37.569 20.06,37.565 20.127,37.561 C20.06,37.557 19.993,37.553 19.927,37.548" id="Fill-14" fill="#FFFFFF" sketch:type="MSShapeGroup"></path>
            <path d="M19.711,37.532 C19.337,37.567 18.96,37.591 18.58,37.602 C18.64,37.603 18.699,37.605 18.759,37.606 C18.82,37.607 18.88,37.607 18.94,37.607 C19.272,37.607 19.6,37.592 19.927,37.573 L19.927,37.548 C19.855,37.544 19.782,37.538 19.711,37.532" id="Fill-15" fill="#F7F7F6" sketch:type="MSShapeGroup"></path>
            <path d="M15.31,36.555 C14.967,36.68 14.619,36.795 14.266,36.898 C14.906,37.093 15.563,37.25 16.233,37.366 L16.233,36.867 C15.922,36.772 15.614,36.667 15.31,36.555" id="Fill-16" fill="#F1F2F1" sketch:type="MSShapeGroup"></path>
            <path d="M16.233,36.867 L16.233,37.366 C16.998,37.499 17.782,37.578 18.58,37.602 C18.96,37.591 19.337,37.567 19.711,37.532 C18.51,37.434 17.347,37.208 16.233,36.867" id="Fill-17" fill="#F1F2F1" sketch:type="MSShapeGroup"></path>
            <path d="M25.274,18.085 C25.274,19.066 26.069,18.499 27.049,18.499 C28.03,18.499 28.825,19.066 28.825,18.085 C28.825,17.105 28.03,16.31 27.049,16.31 C26.069,16.31 25.274,17.105 25.274,18.085" id="Fill-18" fill="#41443E" sketch:type="MSShapeGroup"></path>
            <path d="M10.837,20.605 C10.837,21.207 10.064,21.694 9.111,21.694 C8.157,21.694 7.384,21.207 7.384,20.605 C7.384,20.004 8.157,19.516 9.111,19.516 C10.064,19.516 10.837,20.004 10.837,20.605" id="Fill-19" fill="#F492A6" sketch:type="MSShapeGroup"></path>
            <path d="M25.46,20.605 C25.46,21.207 26.233,21.694 27.186,21.694 C28.139,21.694 28.912,21.207 28.912,20.605 C28.912,20.004 28.139,19.516 27.186,19.516 C26.233,19.516 25.46,20.004 25.46,20.605" id="Fill-20" fill="#F492A6" sketch:type="MSShapeGroup"></path>
        </g>
    </g>
</svg>