<?xml version="1.0" encoding="UTF-8" standalone="no"?>
<svg width="67px" height="28px" viewBox="0 0 67 28" version="1.1" xmlns="http://www.w3.org/2000/svg" xmlns:xlink="http://www.w3.org/1999/xlink" xmlns:sketch="http://www.bohemiancoding.com/sketch/ns">
    <!-- Generator: Sketch Beta 3.3.2 (12041) - http://www.bohemiancoding.com/sketch -->
    <title>happy-taco</title>
    <desc>Created with Sketch Beta.</desc>
    <defs></defs>
    <g id="Page-1" stroke="none" stroke-width="1" fill="none" fill-rule="evenodd" sketch:type="MSPage">
        <g id="happy-taco" sketch:type="MSLayerGroup">
            <path d="M18.069,14.455 C18.069,17.834 15.329,20.574 11.95,20.574 C8.57,20.574 5.83,17.834 5.83,14.455 C5.83,11.075 8.57,8.335 11.95,8.335 C15.329,8.335 18.069,11.075 18.069,14.455" id="Fill-1" fill="#B8D86A" sketch:type="MSShapeGroup"></path>
            <path d="M31.755,7.688 C31.755,11.067 29.016,13.807 25.636,13.807 C22.256,13.807 19.517,11.067 19.517,7.688 C19.517,4.308 22.256,1.568 25.636,1.568 C29.016,1.568 31.755,4.308 31.755,7.688" id="Fill-2" fill="#B8D86A" sketch:type="MSShapeGroup"></path>
            <path d="M48.859,14.455 C48.859,17.834 51.598,20.574 54.978,20.574 C58.358,20.574 61.097,17.834 61.097,14.455 C61.097,11.075 58.358,8.335 54.978,8.335 C51.598,8.335 48.859,11.075 48.859,14.455" id="Fill-3" fill="#B8D86A" sketch:type="MSShapeGroup"></path>
            <path d="M35.172,7.688 C35.172,11.067 37.912,13.807 41.292,13.807 C44.671,13.807 47.411,11.067 47.411,7.688 C47.411,4.308 44.671,1.568 41.292,1.568 C37.912,1.568 35.172,4.308 35.172,7.688" id="Fill-4" fill="#B8D86A" sketch:type="MSShapeGroup"></path>
            <path d="M11.769,20.217 C11.769,23.193 9.357,25.605 6.381,25.605 C3.405,25.605 0.993,23.193 0.993,20.217 C0.993,17.241 3.405,14.828 6.381,14.828 C9.357,14.828 11.769,17.241 11.769,20.217" id="Fill-5" fill="#DD774A" sketch:type="MSShapeGroup"></path>
            <path d="M22.864,12.153 C21.469,14.781 18.207,15.781 15.579,14.385 C12.95,12.99 11.951,9.728 13.346,7.1 C14.742,4.471 18.004,3.472 20.632,4.867 C23.26,6.263 24.26,9.525 22.864,12.153" id="Fill-6" fill="#DD774A" sketch:type="MSShapeGroup"></path>
            <path d="M36.446,10.233 C33.981,11.901 30.631,11.254 28.964,8.789 C27.296,6.324 27.943,2.974 30.408,1.307 C32.873,-0.36 36.223,0.286 37.89,2.751 C39.558,5.216 38.911,8.566 36.446,10.233" id="Fill-7" fill="#DD774A" sketch:type="MSShapeGroup"></path>
            <path d="M49.341,14.907 C46.382,15.223 43.727,13.081 43.41,10.122 C43.094,7.163 45.236,4.508 48.195,4.191 C51.154,3.875 53.809,6.017 54.126,8.976 C54.442,11.935 52.3,14.59 49.341,14.907" id="Fill-8" fill="#DD774A" sketch:type="MSShapeGroup"></path>
            <path d="M58.539,25.081 C55.778,23.973 54.437,20.836 55.545,18.074 C56.653,15.312 59.79,13.972 62.552,15.079 C65.314,16.187 66.654,19.325 65.546,22.086 C64.439,24.848 61.301,26.189 58.539,25.081" id="Fill-9" fill="#DD774A" sketch:type="MSShapeGroup"></path>
            <path d="M64.308,27.956 C65.742,27.956 66.692,26.499 66.15,25.171 C60.894,12.284 48.24,3.202 33.464,3.202 C18.688,3.202 6.033,12.284 0.778,25.171 C0.236,26.499 1.186,27.956 2.62,27.956 L64.308,27.956" id="Fill-10" fill="#E8C274" sketch:type="MSShapeGroup"></path>
            <path d="M0.796,25.127 C0.795,25.127 0.795,25.127 0.795,25.128 C0.795,25.127 0.795,25.127 0.796,25.127 M66.13,25.122 C66.131,25.124 66.132,25.127 66.133,25.129 C66.132,25.127 66.131,25.124 66.13,25.122 M66.114,25.082 C66.114,25.083 66.115,25.085 66.115,25.086 C66.115,25.085 66.114,25.083 66.114,25.082" id="Fill-11" fill="#ECECEC" sketch:type="MSShapeGroup"></path>
            <path d="M6.975,15.21 C4.405,18.132 2.294,21.468 0.796,25.127 C0.795,25.127 0.795,25.127 0.795,25.128 C0.789,25.142 0.783,25.157 0.778,25.171 C0.673,25.427 0.624,25.689 0.624,25.944 C0.622,27.008 1.463,27.956 2.62,27.956 L64.308,27.956 C65.462,27.956 66.302,27.012 66.304,25.952 C66.305,25.694 66.256,25.43 66.15,25.171 C66.144,25.157 66.139,25.143 66.133,25.129 C66.132,25.127 66.131,25.124 66.13,25.122 C66.125,25.11 66.12,25.098 66.115,25.086 C66.115,25.085 66.114,25.083 66.114,25.082 C64.617,21.441 62.512,18.121 59.953,15.21 C61.053,17.085 62.013,19.071 62.782,21.171 C63.267,22.499 62.415,23.956 61.129,23.956 L5.799,23.956 C4.513,23.956 3.66,22.499 4.146,21.171 C4.914,19.071 5.875,17.085 6.975,15.21" id="Fill-12" fill="#D7B56E" sketch:type="MSShapeGroup"></path>
            <path d="M14.293,19.512 C13.753,19.512 13.315,19.949 13.315,20.49 C13.315,21.03 13.753,21.468 14.293,21.468 C14.833,21.468 15.271,21.03 15.271,20.49 C15.271,19.949 14.833,19.512 14.293,19.512" id="Fill-13" fill="#D7B56E" sketch:type="MSShapeGroup"></path>
            <path d="M21.934,19.512 C21.394,19.512 20.956,19.949 20.956,20.49 C20.956,21.03 21.394,21.468 21.934,21.468 C22.474,21.468 22.912,21.03 22.912,20.49 C22.912,19.949 22.474,19.512 21.934,19.512" id="Fill-14" fill="#D7B56E" sketch:type="MSShapeGroup"></path>
            <path d="M29.574,19.512 C29.034,19.512 28.596,19.949 28.596,20.49 C28.596,21.03 29.034,21.468 29.574,21.468 C30.114,21.468 30.552,21.03 30.552,20.49 C30.552,19.949 30.114,19.512 29.574,19.512" id="Fill-15" fill="#D7B56E" sketch:type="MSShapeGroup"></path>
            <path d="M37.215,19.512 C36.675,19.512 36.237,19.949 36.237,20.49 C36.237,21.03 36.675,21.468 37.215,21.468 C37.755,21.468 38.193,21.03 38.193,20.49 C38.193,19.949 37.755,19.512 37.215,19.512" id="Fill-16" fill="#D7B56E" sketch:type="MSShapeGroup"></path>
            <path d="M44.855,19.512 C44.315,19.512 43.877,19.949 43.877,20.49 C43.877,21.03 44.315,21.468 44.855,21.468 C45.395,21.468 45.833,21.03 45.833,20.49 C45.833,19.949 45.395,19.512 44.855,19.512" id="Fill-17" fill="#D7B56E" sketch:type="MSShapeGroup"></path>
            <path d="M52.496,19.512 C51.956,19.512 51.518,19.949 51.518,20.49 C51.518,21.03 51.956,21.468 52.496,21.468 C53.036,21.468 53.474,21.03 53.474,20.49 C53.474,19.949 53.036,19.512 52.496,19.512" id="Fill-18" fill="#D7B56E" sketch:type="MSShapeGroup"></path>
            <path d="M25.208,10.265 C25.208,11.162 24.481,10.81 23.583,10.81 C22.685,10.81 21.957,11.162 21.957,10.265 C21.957,9.367 22.685,8.639 23.583,8.639 C24.481,8.639 25.208,9.367 25.208,10.265" id="Fill-19" fill="#41443E" sketch:type="MSShapeGroup"></path>
            <path d="M41.72,10.265 C41.72,11.162 42.447,10.81 43.345,10.81 C44.243,10.81 44.971,11.162 44.971,10.265 C44.971,9.367 44.243,8.639 43.345,8.639 C42.447,8.639 41.72,9.367 41.72,10.265" id="Fill-20" fill="#41443E" sketch:type="MSShapeGroup"></path>
            <path d="M33.464,11.132 C30.973,11.132 28.954,11.292 28.954,12.723 C28.954,14.155 30.973,15.315 33.464,15.315 C35.955,15.315 37.974,14.155 37.974,12.723 C37.974,11.292 35.955,11.132 33.464,11.132" id="Fill-21" fill="#D7B56E" sketch:type="MSShapeGroup"></path>
            <path d="M23.583,11.723 C22.238,11.723 21.148,12.354 21.148,13.132 C21.148,13.91 22.238,14.54 23.583,14.54 C24.928,14.54 26.018,13.91 26.018,13.132 C26.018,12.354 24.928,11.723 23.583,11.723" id="Fill-22" fill="#ECB483" sketch:type="MSShapeGroup"></path>
            <path d="M43.345,11.723 C42,11.723 40.91,12.354 40.91,13.132 C40.91,13.91 42,14.54 43.345,14.54 C44.69,14.54 45.78,13.91 45.78,13.132 C45.78,12.354 44.69,11.723 43.345,11.723" id="Fill-23" fill="#ECB483" sketch:type="MSShapeGroup"></path>
        </g>
    </g>
</svg>