<?xml version="1.0" encoding="UTF-8" standalone="no"?>
<svg width="49px" height="49px" viewBox="0 0 49 49" version="1.1" xmlns="http://www.w3.org/2000/svg" xmlns:xlink="http://www.w3.org/1999/xlink" xmlns:sketch="http://www.bohemiancoding.com/sketch/ns">
    <!-- Generator: Sketch Beta 3.3.2 (12041) - http://www.bohemiancoding.com/sketch -->
    <title>happy-sandwich</title>
    <desc>Created with Sketch Beta.</desc>
    <defs></defs>
    <g id="Page-1" stroke="none" stroke-width="1" fill="none" fill-rule="evenodd" sketch:type="MSPage">
        <g id="happy-sandwich" sketch:type="MSLayerGroup">
            <path d="M14.562,36.83 C14.562,40.632 11.481,43.713 7.679,43.713 C3.878,43.713 0.796,40.632 0.796,36.83 C0.796,33.029 3.878,29.948 7.679,29.948 C11.481,29.948 14.562,33.029 14.562,36.83" id="Fill-1" fill="#B8D86A" sketch:type="MSShapeGroup"></path>
            <path d="M14.562,21.617 C14.562,25.418 11.481,28.5 7.679,28.5 C3.878,28.5 0.796,25.418 0.796,21.617 C0.796,17.815 3.878,14.734 7.679,14.734 C11.481,14.734 14.562,17.815 14.562,21.617" id="Fill-2" fill="#B8D86A" sketch:type="MSShapeGroup"></path>
            <path d="M14.562,29.574 C14.562,33.375 11.481,36.457 7.679,36.457 C3.878,36.457 0.796,33.375 0.796,29.574 C0.796,25.773 3.878,22.691 7.679,22.691 C11.481,22.691 14.562,25.773 14.562,29.574" id="Fill-3" fill="#FFCC33" sketch:type="MSShapeGroup"></path>
            <path d="M34.496,36.831 C34.496,40.632 37.578,43.713 41.379,43.713 C45.18,43.713 48.262,40.632 48.262,36.831 C48.262,33.029 45.18,29.948 41.379,29.948 C37.578,29.948 34.496,33.029 34.496,36.831" id="Fill-4" fill="#B8D86A" sketch:type="MSShapeGroup"></path>
            <path d="M34.496,21.617 C34.496,25.418 37.578,28.5 41.379,28.5 C45.18,28.5 48.262,25.418 48.262,21.617 C48.262,17.815 45.18,14.734 41.379,14.734 C37.578,14.734 34.496,17.815 34.496,21.617" id="Fill-5" fill="#B8D86A" sketch:type="MSShapeGroup"></path>
            <path d="M34.496,29.574 C34.496,33.375 37.578,36.457 41.379,36.457 C45.18,36.457 48.262,33.375 48.262,29.574 C48.262,25.773 45.18,22.691 41.379,22.691 C37.578,22.691 34.496,25.773 34.496,29.574" id="Fill-6" fill="#FFCC33" sketch:type="MSShapeGroup"></path>
            <path d="M43.479,45.881 L5.579,45.881 C4.475,45.881 3.579,44.986 3.579,43.881 L3.579,2.563 C3.579,1.459 4.475,0.563 5.579,0.563 L43.479,0.563 C44.583,0.563 45.479,1.459 45.479,2.563 L45.479,43.881 C45.479,44.986 44.583,45.881 43.479,45.881" id="Fill-7" fill="#DD774A" sketch:type="MSShapeGroup"></path>
            <path d="M40.636,2.034 L8.422,2.034 C4.151,2.034 0.688,5.496 0.688,9.767 C0.688,12.789 2.426,15.399 4.952,16.672 L4.952,47.431 C4.952,48.052 5.456,48.556 6.077,48.556 L42.981,48.556 C43.602,48.556 44.106,48.052 44.106,47.431 L44.106,16.672 C46.633,15.399 48.37,12.789 48.37,9.767 C48.37,5.496 44.907,2.034 40.636,2.034" id="Fill-8" fill="#E8C274" sketch:type="MSShapeGroup"></path>
            <path d="M7.077,46.431 L7.077,16.671 C7.077,15.864 6.628,15.136 5.907,14.773 C3.998,13.813 2.813,11.895 2.813,9.767 C2.813,6.674 5.329,4.159 8.422,4.159 L40.636,4.159 C43.729,4.159 46.245,6.674 46.245,9.767 C46.245,11.895 45.06,13.813 43.151,14.773 C42.429,15.136 41.981,15.864 41.981,16.671 L41.981,46.431 L7.077,46.431" id="Fill-9" fill="#F9F0D9" sketch:type="MSShapeGroup"></path>
            <path d="M48.37,9.745 L48.37,9.767 L48.37,9.745 M48.37,9.718 L48.37,9.739 L48.37,9.718 M48.369,9.695 C48.37,9.702 48.37,9.709 48.37,9.716 C48.37,9.709 48.37,9.702 48.369,9.695 M48.369,9.67 L48.369,9.689 L48.369,9.67 M48.369,9.647 L48.369,9.663 L48.369,9.647 M48.368,9.625 C48.368,9.629 48.369,9.634 48.369,9.638 C48.369,9.633 48.368,9.629 48.368,9.625 M48.368,9.599 L48.368,9.608 L48.368,9.599 M48.368,9.582 L48.368,9.586 L48.368,9.582" id="Fill-10" fill="#ECECEC" sketch:type="MSShapeGroup"></path>
            <path d="M44.562,3.112 C45.074,4.146 45.37,5.306 45.37,6.538 C45.37,6.611 45.369,6.684 45.367,6.756 C45.923,7.627 46.245,8.66 46.245,9.767 C46.245,11.895 45.06,13.813 43.151,14.773 C42.429,15.136 41.981,15.864 41.981,16.671 L41.981,46.431 L7.077,46.431 L7.077,45.327 L4.952,45.327 L4.952,47.431 C4.952,48.052 5.456,48.556 6.077,48.556 L42.981,48.556 C43.602,48.556 44.106,48.052 44.106,47.431 L44.106,16.672 C46.633,15.399 48.37,12.789 48.37,9.767 L48.37,9.745 L48.37,9.739 L48.37,9.718 L48.37,9.716 C48.37,9.709 48.37,9.702 48.369,9.695 L48.369,9.689 L48.369,9.67 L48.369,9.663 L48.369,9.647 L48.369,9.638 C48.369,9.634 48.368,9.629 48.368,9.625 L48.368,9.608 L48.368,9.599 L48.368,9.586 L48.368,9.582 C48.303,6.824 46.789,4.429 44.562,3.112" id="Fill-11" fill="#D7B56E" sketch:type="MSShapeGroup"></path>
            <path d="M45.367,6.756 C45.285,9.685 43.572,12.201 41.106,13.443 L41.106,44.202 C41.106,44.823 40.602,45.327 39.981,45.327 L7.077,45.327 L7.077,46.431 L41.981,46.431 L41.981,16.671 C41.981,15.864 42.429,15.136 43.151,14.773 C45.06,13.813 46.245,11.895 46.245,9.767 C46.245,8.66 45.923,7.627 45.367,6.756" id="Fill-12" fill="#E6DEC9" sketch:type="MSShapeGroup"></path>
            <path d="M32.054,24.984 C32.054,25.82 32.732,25.65 33.568,25.65 C34.405,25.65 35.082,25.82 35.082,24.984 C35.082,24.148 34.405,23.47 33.568,23.47 C32.732,23.47 32.054,24.148 32.054,24.984" id="Fill-13" fill="#41443E" sketch:type="MSShapeGroup"></path>
            <path d="M17.004,24.984 C17.004,25.82 16.326,25.65 15.49,25.65 C14.654,25.65 13.975,25.82 13.975,24.984 C13.975,24.148 14.654,23.47 15.49,23.47 C16.326,23.47 17.004,24.148 17.004,24.984" id="Fill-14" fill="#41443E" sketch:type="MSShapeGroup"></path>
            <path d="M28.787,29.784 C28.787,30.914 26.88,33.953 24.529,33.953 C22.178,33.953 20.271,30.914 20.271,29.784 C20.271,28.653 22.178,27.736 24.529,27.736 C26.88,27.736 28.787,28.653 28.787,29.784" id="Fill-15" fill="#F492A6" sketch:type="MSShapeGroup"></path>
            <path d="M33.568,27.005 C32.784,27.005 32.149,27.641 32.149,28.425 C32.149,29.209 32.784,29.844 33.568,29.844 C34.352,29.844 34.988,29.209 34.988,28.425 C34.988,27.641 34.352,27.005 33.568,27.005" id="Fill-16" fill="#F9DCD6" sketch:type="MSShapeGroup"></path>
            <path d="M15.49,27.005 C14.706,27.005 14.07,27.641 14.07,28.425 C14.07,29.209 14.706,29.844 15.49,29.844 C16.274,29.844 16.909,29.209 16.909,28.425 C16.909,27.641 16.274,27.005 15.49,27.005" id="Fill-17" fill="#F9DCD6" sketch:type="MSShapeGroup"></path>
            <path d="M22.827,27.909 C22.799,28.006 22.77,28.104 22.77,28.212 C22.77,28.782 23.2,29.245 23.73,29.245 C24.073,29.245 24.359,29.04 24.529,28.749 C24.699,29.04 24.986,29.245 25.328,29.245 C25.858,29.245 26.288,28.782 26.288,28.212 C26.288,28.104 26.259,28.006 26.231,27.909 C25.709,27.799 25.135,27.736 24.529,27.736 C23.923,27.736 23.349,27.799 22.827,27.909" id="Fill-18" fill="#FFFFFF" sketch:type="MSShapeGroup"></path>
            <path d="M24.541,33.953 L24.529,33.953 L24.541,33.953 M24.517,33.953 L24.529,33.953 L24.517,33.953 M24.554,33.953 L24.546,33.953 L24.554,33.953 M24.504,33.953 L24.512,33.953 L24.504,33.953 M24.567,33.952 L24.56,33.952 L24.567,33.952 M24.491,33.952 L24.499,33.952 L24.491,33.952 M24.578,33.952 L24.572,33.952 L24.578,33.952 M24.48,33.952 L24.486,33.952 L24.48,33.952 M24.607,33.951 L24.607,33.952 L24.607,33.951 M24.451,33.951 C24.451,33.951 24.451,33.951 24.452,33.952 L24.451,33.951" id="Fill-19" fill="#F9DCD6" sketch:type="MSShapeGroup"></path>
            <path d="M24.529,30.764 C23.373,30.764 22.389,31.6 21.988,32.78 C22.675,33.429 23.52,33.921 24.44,33.951 L24.451,33.951 C24.451,33.951 24.451,33.951 24.452,33.952 L24.48,33.952 L24.486,33.952 L24.491,33.952 L24.499,33.952 C24.5,33.952 24.502,33.952 24.504,33.953 L24.512,33.953 L24.517,33.953 L24.529,33.953 L24.541,33.953 L24.546,33.953 L24.554,33.953 C24.556,33.952 24.558,33.952 24.56,33.952 L24.567,33.952 L24.572,33.952 L24.578,33.952 L24.607,33.952 L24.607,33.951 L24.618,33.951 C25.538,33.921 26.383,33.429 27.07,32.78 C26.669,31.6 25.685,30.764 24.529,30.764" id="Fill-20" fill="#F7AEBD" sketch:type="MSShapeGroup"></path>
            <path d="M13.671,39.17 C13.671,39.528 13.381,39.818 13.022,39.818 C12.664,39.818 12.374,39.528 12.374,39.17 C12.374,38.811 12.664,38.521 13.022,38.521 C13.381,38.521 13.671,38.811 13.671,39.17" id="Fill-21" fill="#E8C274" sketch:type="MSShapeGroup"></path>
            <path d="M35.387,39.17 C35.387,39.528 35.678,39.818 36.036,39.818 C36.394,39.818 36.684,39.528 36.684,39.17 C36.684,38.811 36.394,38.521 36.036,38.521 C35.678,38.521 35.387,38.811 35.387,39.17" id="Fill-22" fill="#E8C274" sketch:type="MSShapeGroup"></path>
            <path d="M25.178,41.637 C25.178,41.995 24.887,42.286 24.529,42.286 C24.171,42.286 23.881,41.995 23.881,41.637 C23.881,41.279 24.171,40.989 24.529,40.989 C24.887,40.989 25.178,41.279 25.178,41.637" id="Fill-23" fill="#E8C274" sketch:type="MSShapeGroup"></path>
            <path d="M13.671,14.398 C13.671,14.039 13.381,13.749 13.022,13.749 C12.664,13.749 12.374,14.039 12.374,14.398 C12.374,14.756 12.664,15.046 13.022,15.046 C13.381,15.046 13.671,14.756 13.671,14.398" id="Fill-24" fill="#E8C274" sketch:type="MSShapeGroup"></path>
            <path d="M35.387,14.398 C35.387,14.039 35.678,13.749 36.036,13.749 C36.394,13.749 36.684,14.039 36.684,14.398 C36.684,14.756 36.394,15.046 36.036,15.046 C35.678,15.046 35.387,14.756 35.387,14.398" id="Fill-25" fill="#E8C274" sketch:type="MSShapeGroup"></path>
            <path d="M25.178,11.93 C25.178,11.572 24.887,11.281 24.529,11.281 C24.171,11.281 23.881,11.572 23.881,11.93 C23.881,12.288 24.171,12.578 24.529,12.578 C24.887,12.578 25.178,12.288 25.178,11.93" id="Fill-26" fill="#E8C274" sketch:type="MSShapeGroup"></path>
        </g>
    </g>
</svg>