<?xml version="1.0" encoding="UTF-8" standalone="no"?>
<svg width="27px" height="57px" viewBox="0 0 27 57" version="1.1" xmlns="http://www.w3.org/2000/svg" xmlns:xlink="http://www.w3.org/1999/xlink" xmlns:sketch="http://www.bohemiancoding.com/sketch/ns">
    <!-- Generator: Sketch Beta 3.3.2 (12041) - http://www.bohemiancoding.com/sketch -->
    <title>happy-ice-cream</title>
    <desc>Created with Sketch Beta.</desc>
    <defs></defs>
    <g id="Page-1" stroke="none" stroke-width="1" fill="none" fill-rule="evenodd" sketch:type="MSPage">
        <g id="happy-ice-cream" sketch:type="MSLayerGroup">
            <path d="M13.649,56.257 L12.877,56.257 C11.773,56.257 10.877,55.362 10.877,54.257 L10.877,36.974 L15.649,36.974 L15.649,54.257 C15.649,55.362 14.753,56.257 13.649,56.257" id="Fill-1" fill="#E8C274" sketch:type="MSShapeGroup"></path>
            <path d="M10.877,41.159 L15.649,41.159 L15.649,43.836 L10.877,43.836 L10.877,41.159 Z" id="Fill-2" fill="#D7B56E" sketch:type="MSShapeGroup"></path>
            <path d="M22.84,41.159 L3.537,41.159 C1.693,41.159 0.213,39.637 0.264,37.794 L1.175,3.528 C1.224,1.756 2.675,0.344 4.448,0.344 L21.929,0.344 C23.702,0.344 25.153,1.756 25.202,3.528 L26.113,37.794 C26.163,39.637 24.683,41.159 22.84,41.159" id="Fill-3" fill="#65DBC7" sketch:type="MSShapeGroup"></path>
            <path d="M3.527,41.159 L3.537,41.159 L3.527,41.159 M3.518,41.159 L3.524,41.159 L3.518,41.159 M3.508,41.159 L3.513,41.159 L3.508,41.159 M3.499,41.159 L3.503,41.159 L3.499,41.159 M25.201,3.518 C25.201,3.522 25.202,3.525 25.202,3.528 L26.113,37.794 C26.114,37.827 26.114,37.859 26.114,37.891 C26.114,37.859 26.114,37.827 26.113,37.794 L25.202,3.528 C25.202,3.525 25.201,3.522 25.201,3.518 M25.201,3.509 L25.201,3.516 L25.201,3.509 M25.201,3.498 L25.201,3.506 L25.201,3.498 M25.2,3.488 C25.2,3.491 25.201,3.494 25.201,3.497 C25.201,3.494 25.2,3.491 25.2,3.488 M25.2,3.477 L25.2,3.487 L25.2,3.477 M25.199,3.468 C25.2,3.47 25.2,3.472 25.2,3.474 C25.2,3.472 25.2,3.47 25.199,3.468 M25.199,3.459 L25.199,3.463 L25.199,3.459 M25.199,3.451 L25.199,3.453 L25.199,3.451" id="Fill-4" fill="#ECECEC" sketch:type="MSShapeGroup"></path>
            <path d="M22.869,0.497 C22.951,0.769 23.011,1.049 23.019,1.346 L23.93,35.612 C23.981,37.455 22.501,38.976 20.657,38.976 L1.354,38.976 C1.026,38.976 0.715,38.913 0.416,38.823 C0.815,40.149 2.02,41.132 3.476,41.158 C3.484,41.158 3.491,41.159 3.499,41.159 L3.503,41.159 L3.508,41.159 L3.513,41.159 L3.518,41.159 L3.524,41.159 L3.527,41.159 L3.537,41.159 L22.84,41.159 C24.651,41.159 26.111,39.69 26.114,37.891 C26.114,37.859 26.114,37.827 26.113,37.794 L25.202,3.528 C25.202,3.525 25.201,3.522 25.201,3.518 L25.201,3.516 L25.201,3.509 L25.201,3.506 L25.201,3.498 L25.201,3.497 C25.201,3.494 25.2,3.491 25.2,3.488 L25.2,3.487 L25.2,3.477 L25.2,3.474 C25.2,3.472 25.2,3.47 25.199,3.468 L25.199,3.463 L25.199,3.459 L25.199,3.453 L25.199,3.451 C25.127,2.042 24.162,0.887 22.869,0.497" id="Fill-5" fill="#61CCB9" sketch:type="MSShapeGroup"></path>
            <path d="M10.068,24.971 L9.798,24.971 C8.982,24.971 8.321,25.633 8.321,26.449 L8.321,35.855 C8.321,36.671 8.982,37.332 9.798,37.332 L10.068,37.332 C10.884,37.332 11.545,36.671 11.545,35.855 L11.545,26.449 C11.545,25.633 10.884,24.971 10.068,24.971" id="Fill-6" fill="#61CCB9" sketch:type="MSShapeGroup"></path>
            <path d="M16.727,24.971 L16.458,24.971 C15.642,24.971 14.98,25.633 14.98,26.449 L14.98,35.855 C14.98,36.671 15.642,37.332 16.458,37.332 L16.727,37.332 C17.543,37.332 18.205,36.671 18.205,35.855 L18.205,26.449 C18.205,25.633 17.543,24.971 16.727,24.971" id="Fill-7" fill="#61CCB9" sketch:type="MSShapeGroup"></path>
            <path d="M8.321,14.012 C8.321,14.993 7.526,14.425 6.545,14.425 C5.564,14.425 4.769,14.993 4.769,14.012 C4.769,13.031 5.564,12.236 6.545,12.236 C7.526,12.236 8.321,13.031 8.321,14.012" id="Fill-8" fill="#41443E" sketch:type="MSShapeGroup"></path>
            <path d="M6.545,15.443 C5.592,15.443 4.819,15.93 4.819,16.532 C4.819,17.133 5.592,17.621 6.545,17.621 C7.498,17.621 8.271,17.133 8.271,16.532 C8.271,15.93 7.498,15.443 6.545,15.443" id="Fill-9" fill="#82CCC0" sketch:type="MSShapeGroup"></path>
            <path d="M18.056,14.012 C18.056,14.993 18.851,14.425 19.832,14.425 C20.813,14.425 21.608,14.993 21.608,14.012 C21.608,13.031 20.813,12.236 19.832,12.236 C18.851,12.236 18.056,13.031 18.056,14.012" id="Fill-10" fill="#41443E" sketch:type="MSShapeGroup"></path>
            <path d="M19.832,15.443 C18.878,15.443 18.106,15.93 18.106,16.532 C18.106,17.133 18.878,17.621 19.832,17.621 C20.785,17.621 21.558,17.133 21.558,16.532 C21.558,15.93 20.785,15.443 19.832,15.443" id="Fill-11" fill="#82CCC0" sketch:type="MSShapeGroup"></path>
            <path d="M13.188,16.339 C11.858,16.339 10.78,16.602 10.78,16.926 C10.78,17.25 11.858,22.523 13.188,22.523 C14.519,22.523 15.597,17.25 15.597,16.926 C15.597,16.602 14.519,16.339 13.188,16.339" id="Fill-12" fill="#61CCB9" sketch:type="MSShapeGroup"></path>
            <path d="M15.363,17.125 C15.363,17.384 14.389,21.594 13.188,21.594 C11.987,21.594 11.014,17.384 11.014,17.125 C11.014,16.866 11.987,16.656 13.188,16.656 C14.389,16.656 15.363,16.866 15.363,17.125" id="Fill-13" fill="#F492A6" sketch:type="MSShapeGroup"></path>
            <path d="M13.188,18.93 C12.664,18.93 12.207,19.437 11.949,20.193 C12.301,20.972 12.727,21.594 13.188,21.594 C13.65,21.594 14.076,20.972 14.428,20.193 C14.17,19.437 13.713,18.93 13.188,18.93" id="Fill-14" fill="#F8C9D3" sketch:type="MSShapeGroup"></path>
            <path d="M13.188,1.698 C8.869,1.698 5.367,1.866 5.367,2.074 C5.367,2.281 8.869,2.449 13.188,2.449 C17.508,2.449 21.01,2.281 21.01,2.074 C21.01,1.866 17.508,1.698 13.188,1.698" id="Fill-15" fill="#81E1CF" sketch:type="MSShapeGroup"></path>
        </g>
    </g>
</svg>